<svg width="29" height="29" viewBox="0 0 29 29" fill="none" xmlns="http://www.w3.org/2000/svg">

<!-- logo -->
<g id="logo">
<path d="M155.85 14.0469H157.162V20.7803C157.162 21.5277 156.996 22.1497 156.663 22.6465C156.33 23.1432 155.888 23.5169 155.337 23.7676C154.79 24.0137 154.195 24.1367 153.553 24.1367C152.878 24.1367 152.268 24.0137 151.721 23.7676C151.178 23.5169 150.748 23.1432 150.429 22.6465C150.114 22.1497 149.957 21.5277 149.957 20.7803V14.0469H151.263V20.7803C151.263 21.2998 151.358 21.7282 151.55 22.0654C151.741 22.4027 152.008 22.6533 152.35 22.8174C152.696 22.9814 153.097 23.0635 153.553 23.0635C154.013 23.0635 154.414 22.9814 154.756 22.8174C155.102 22.6533 155.371 22.4027 155.562 22.0654C155.754 21.7282 155.85 21.2998 155.85 20.7803V14.0469ZM166.248 14.0469V24H164.929V14.0469H166.248ZM178.459 14.0469L174.309 24.8545H173.222L177.379 14.0469H178.459ZM191.325 14.0469H192.638V20.7803C192.638 21.5277 192.472 22.1497 192.139 22.6465C191.806 23.1432 191.364 23.5169 190.813 23.7676C190.266 24.0137 189.671 24.1367 189.029 24.1367C188.354 24.1367 187.743 24.0137 187.196 23.7676C186.654 23.5169 186.224 23.1432 185.904 22.6465C185.59 22.1497 185.433 21.5277 185.433 20.7803V14.0469H186.738V20.7803C186.738 21.2998 186.834 21.7282 187.026 22.0654C187.217 22.4027 187.484 22.6533 187.825 22.8174C188.172 22.9814 188.573 23.0635 189.029 23.0635C189.489 23.0635 189.89 22.9814 190.232 22.8174C190.578 22.6533 190.847 22.4027 191.038 22.0654C191.23 21.7282 191.325 21.2998 191.325 20.7803V14.0469ZM201.164 14.0469L203.556 17.8613L205.949 14.0469H207.487L204.342 18.9756L207.562 24H206.01L203.556 20.1104L201.102 24H199.55L202.77 18.9756L199.626 14.0469H201.164ZM226.453 24H224.374L224.388 22.9268H226.453C227.163 22.9268 227.756 22.7786 228.23 22.4824C228.704 22.1816 229.059 21.7624 229.296 21.2246C229.538 20.6823 229.659 20.0488 229.659 19.3242V18.7158C229.659 18.1462 229.59 17.6403 229.454 17.1982C229.317 16.7516 229.116 16.3757 228.852 16.0703C228.588 15.7604 228.264 15.5257 227.881 15.3662C227.503 15.2067 227.068 15.127 226.576 15.127H224.333V14.0469H226.576C227.227 14.0469 227.822 14.1562 228.36 14.375C228.898 14.5892 229.36 14.9014 229.747 15.3115C230.139 15.7171 230.44 16.2093 230.65 16.7881C230.859 17.3623 230.964 18.0094 230.964 18.7295V19.3242C230.964 20.0443 230.859 20.6937 230.65 21.2725C230.44 21.8467 230.137 22.3366 229.741 22.7422C229.349 23.1478 228.875 23.46 228.319 23.6787C227.767 23.8929 227.145 24 226.453 24ZM225.079 14.0469V24H223.759V14.0469H225.079ZM244.87 22.9268V24H239.599V22.9268H244.87ZM239.866 14.0469V24H238.547V14.0469H239.866ZM244.173 18.3262V19.3994H239.599V18.3262H244.173ZM244.802 14.0469V15.127H239.599V14.0469H244.802ZM257.408 21.4844C257.408 21.252 257.372 21.0469 257.299 20.8691C257.231 20.6868 257.108 20.5228 256.93 20.377C256.757 20.2311 256.515 20.0921 256.205 19.96C255.9 19.8278 255.513 19.6934 255.043 19.5566C254.551 19.4108 254.107 19.249 253.71 19.0713C253.314 18.889 252.974 18.6816 252.692 18.4492C252.409 18.2168 252.193 17.9502 252.042 17.6494C251.892 17.3486 251.817 17.0046 251.817 16.6172C251.817 16.2298 251.896 15.8721 252.056 15.5439C252.215 15.2158 252.443 14.931 252.739 14.6895C253.04 14.4434 253.398 14.252 253.813 14.1152C254.227 13.9785 254.69 13.9102 255.2 13.9102C255.948 13.9102 256.581 14.0537 257.101 14.3408C257.625 14.6234 258.024 14.9948 258.297 15.4551C258.571 15.9108 258.707 16.3984 258.707 16.918H257.395C257.395 16.5443 257.315 16.2139 257.155 15.9268C256.996 15.6351 256.754 15.4072 256.431 15.2432C256.107 15.0745 255.697 14.9902 255.2 14.9902C254.731 14.9902 254.344 15.0609 254.038 15.2021C253.733 15.3434 253.505 15.5348 253.355 15.7764C253.209 16.0179 253.136 16.2936 253.136 16.6035C253.136 16.8132 253.179 17.0046 253.266 17.1777C253.357 17.3464 253.496 17.5036 253.683 17.6494C253.874 17.7952 254.116 17.9297 254.407 18.0527C254.704 18.1758 255.057 18.2943 255.467 18.4082C256.032 18.5677 256.52 18.7454 256.93 18.9414C257.34 19.1374 257.677 19.3584 257.942 19.6045C258.21 19.846 258.409 20.1217 258.536 20.4316C258.668 20.737 258.735 21.0833 258.735 21.4707C258.735 21.8763 258.653 22.2432 258.488 22.5713C258.324 22.8994 258.09 23.1797 257.784 23.4121C257.479 23.6445 257.112 23.8245 256.684 23.9521C256.26 24.0752 255.786 24.1367 255.262 24.1367C254.802 24.1367 254.348 24.0729 253.902 23.9453C253.46 23.8177 253.056 23.6263 252.692 23.3711C252.332 23.1159 252.042 22.8014 251.823 22.4277C251.609 22.0495 251.502 21.612 251.502 21.1152H252.815C252.815 21.457 252.881 21.751 253.013 21.9971C253.145 22.2386 253.325 22.4391 253.553 22.5986C253.785 22.7581 254.047 22.8766 254.339 22.9541C254.635 23.027 254.943 23.0635 255.262 23.0635C255.722 23.0635 256.112 22.9997 256.431 22.8721C256.75 22.7445 256.991 22.5622 257.155 22.3252C257.324 22.0882 257.408 21.8079 257.408 21.4844ZM267.431 14.0469V24H266.112V14.0469H267.431ZM282.786 19.0439V22.6875C282.663 22.8698 282.467 23.0749 282.198 23.3027C281.929 23.526 281.558 23.722 281.084 23.8906C280.615 24.0547 280.008 24.1367 279.266 24.1367C278.66 24.1367 278.101 24.0319 277.591 23.8223C277.085 23.6081 276.645 23.2982 276.271 22.8926C275.902 22.4824 275.615 21.9857 275.41 21.4023C275.21 20.8145 275.109 20.1491 275.109 19.4062V18.6338C275.109 17.891 275.196 17.2279 275.369 16.6445C275.547 16.0612 275.807 15.5667 276.148 15.1611C276.49 14.751 276.91 14.4411 277.406 14.2314C277.903 14.0173 278.473 13.9102 279.115 13.9102C279.876 13.9102 280.512 14.0423 281.022 14.3066C281.537 14.5664 281.938 14.9264 282.226 15.3867C282.517 15.847 282.704 16.3711 282.786 16.959H281.467C281.408 16.599 281.289 16.2708 281.111 15.9746C280.938 15.6784 280.69 15.4414 280.366 15.2637C280.043 15.0814 279.626 14.9902 279.115 14.9902C278.655 14.9902 278.256 15.0745 277.919 15.2432C277.582 15.4118 277.304 15.6533 277.085 15.9678C276.866 16.2822 276.702 16.6628 276.593 17.1094C276.488 17.556 276.436 18.0596 276.436 18.6201V19.4062C276.436 19.9805 276.502 20.4932 276.634 20.9443C276.771 21.3955 276.964 21.7806 277.215 22.0996C277.465 22.4141 277.764 22.6533 278.11 22.8174C278.461 22.9814 278.849 23.0635 279.272 23.0635C279.742 23.0635 280.122 23.0247 280.414 22.9473C280.706 22.8652 280.934 22.7695 281.098 22.6602C281.262 22.5462 281.387 22.4391 281.474 22.3389V20.1104H279.17V19.0439H282.786ZM298.23 14.0469V24H296.904L291.893 16.3232V24H290.574V14.0469H291.893L296.924 21.7441V14.0469H298.23ZM312.491 22.9268V24H307.221V22.9268H312.491ZM307.487 14.0469V24H306.168V14.0469H307.487ZM311.794 18.3262V19.3994H307.221V18.3262H311.794ZM312.423 14.0469V15.127H307.221V14.0469H312.423ZM319.725 14.0469H323.02C323.767 14.0469 324.398 14.1608 324.913 14.3887C325.433 14.6165 325.827 14.9538 326.096 15.4004C326.369 15.8424 326.506 16.387 326.506 17.0342C326.506 17.4899 326.413 17.9069 326.226 18.2852C326.043 18.6589 325.779 18.9779 325.433 19.2422C325.091 19.502 324.681 19.6956 324.202 19.8232L323.833 19.9668H320.737L320.723 18.8936H323.061C323.535 18.8936 323.929 18.8115 324.243 18.6475C324.558 18.4788 324.795 18.2533 324.954 17.9707C325.114 17.6882 325.194 17.376 325.194 17.0342C325.194 16.6514 325.118 16.3164 324.968 16.0293C324.818 15.7422 324.581 15.5212 324.257 15.3662C323.938 15.2067 323.526 15.127 323.02 15.127H321.044V24H319.725V14.0469ZM325.542 24L323.122 19.4883L324.496 19.4814L326.95 23.918V24H325.542Z" fill="#ffffff"/>
<path d="M1.51758 6.09375H9.35156C10.8828 6.09375 12.2135 6.32161 13.3438 6.77734C14.474 7.23307 15.3444 7.90755 15.9551 8.80078C16.5749 9.69401 16.8848 10.7969 16.8848 12.1094C16.8848 13.2487 16.707 14.2012 16.3516 14.9668C15.9961 15.7324 15.4993 16.3659 14.8613 16.8672C14.2324 17.3594 13.4987 17.765 12.6602 18.084L11.0879 18.9727H4.51172L4.48438 15.2676H9.35156C9.96224 15.2676 10.4681 15.1582 10.8691 14.9395C11.2702 14.7207 11.571 14.4108 11.7715 14.0098C11.9811 13.5996 12.0859 13.112 12.0859 12.5469C12.0859 11.9727 11.9811 11.4805 11.7715 11.0703C11.5618 10.6602 11.252 10.3457 10.8418 10.127C10.4408 9.9082 9.94401 9.79883 9.35156 9.79883H6.31641V26H1.51758V6.09375ZM12.4141 26L8.01172 17.1953L13.0977 17.168L17.5547 25.7949V26H12.4141ZM22.4716 11.207V26H17.8505V11.207H22.4716ZM17.5771 7.39258C17.5771 6.73633 17.8141 6.19857 18.288 5.7793C18.762 5.36003 19.3772 5.15039 20.1338 5.15039C20.8903 5.15039 21.5055 5.36003 21.9795 5.7793C22.4534 6.19857 22.6904 6.73633 22.6904 7.39258C22.6904 8.04883 22.4534 8.58659 21.9795 9.00586C21.5055 9.42513 20.8903 9.63477 20.1338 9.63477C19.3772 9.63477 18.762 9.42513 18.288 9.00586C17.8141 8.58659 17.5771 8.04883 17.5771 7.39258ZM29.6034 22.7188C30.0318 22.7188 30.3964 22.6413 30.6972 22.4863C31.0071 22.3223 31.2395 22.0944 31.3945 21.8027C31.5585 21.502 31.636 21.1419 31.6269 20.7227H35.9609C35.97 21.8346 35.6965 22.8099 35.1405 23.6484C34.5937 24.4779 33.8463 25.125 32.8984 25.5898C31.9596 26.0456 30.8977 26.2734 29.7128 26.2734C28.5553 26.2734 27.5435 26.0866 26.6777 25.7129C25.8118 25.3301 25.0872 24.8014 24.5038 24.127C23.9296 23.4434 23.4967 22.6458 23.205 21.7344C22.9224 20.8229 22.7812 19.834 22.7812 18.7676V18.4531C22.7812 17.3867 22.9224 16.3978 23.205 15.4863C23.4967 14.5658 23.9296 13.7682 24.5038 13.0938C25.0872 12.4102 25.8072 11.8815 26.664 11.5078C27.5299 11.125 28.537 10.9336 29.6855 10.9336C30.9159 10.9336 32.0006 11.166 32.9394 11.6309C33.8873 12.0957 34.6301 12.7702 35.1679 13.6543C35.7057 14.5384 35.97 15.6094 35.9609 16.8672H31.6269C31.636 16.4206 31.5676 16.0195 31.4218 15.6641C31.276 15.3086 31.0481 15.026 30.7382 14.8164C30.4374 14.5977 30.0501 14.4883 29.5761 14.4883C29.1021 14.4883 28.7193 14.5931 28.4277 14.8027C28.136 15.0124 27.9127 15.304 27.7577 15.6777C27.6119 16.0423 27.5116 16.4616 27.457 16.9355C27.4114 17.4095 27.3886 17.9154 27.3886 18.4531V18.7676C27.3886 19.3145 27.4114 19.8294 27.457 20.3125C27.5116 20.7865 27.6165 21.2057 27.7714 21.5703C27.9264 21.9258 28.1497 22.2083 28.4413 22.418C28.733 22.6185 29.1204 22.7188 29.6034 22.7188ZM40.4813 5V26H35.8739V5H40.4813ZM39.9345 18.0977L38.8544 18.125C38.8544 17.0859 38.982 16.1289 39.2372 15.2539C39.4924 14.3789 39.857 13.6178 40.3309 12.9707C40.8049 12.3236 41.3746 11.8223 42.0399 11.4668C42.7053 11.1113 43.4436 10.9336 44.2548 10.9336C44.9839 10.9336 45.6493 11.0384 46.2509 11.248C46.8615 11.4577 47.3856 11.7949 47.8231 12.2598C48.2697 12.7246 48.6115 13.3307 48.8485 14.0781C49.0946 14.8255 49.2177 15.737 49.2177 16.8125V26H44.5829V16.7852C44.5829 16.1836 44.4963 15.7188 44.3231 15.3906C44.1591 15.0534 43.9221 14.821 43.6122 14.6934C43.3023 14.5566 42.924 14.4883 42.4774 14.4883C41.9397 14.4883 41.5022 14.5794 41.1649 14.7617C40.8277 14.944 40.5679 15.1992 40.3856 15.5273C40.2124 15.8464 40.094 16.2246 40.0302 16.6621C39.9664 17.0996 39.9345 17.5781 39.9345 18.0977ZM57.4979 22.2812V16.1836C57.4979 15.7643 57.4386 15.4043 57.3202 15.1035C57.2017 14.8027 57.0148 14.5703 56.7596 14.4062C56.5044 14.2331 56.1626 14.1465 55.7342 14.1465C55.3879 14.1465 55.0916 14.2057 54.8455 14.3242C54.5995 14.4427 54.4126 14.6204 54.285 14.8574C54.1574 15.0944 54.0936 15.3952 54.0936 15.7598H49.4862C49.4862 15.0762 49.6366 14.4427 49.9373 13.8594C50.2472 13.2669 50.6847 12.752 51.2498 12.3145C51.8241 11.877 52.5077 11.5397 53.3006 11.3027C54.1027 11.0566 54.9959 10.9336 55.9803 10.9336C57.1561 10.9336 58.2043 11.1296 59.1248 11.5215C60.0545 11.9134 60.7883 12.5013 61.326 13.2852C61.8638 14.0599 62.1327 15.0352 62.1327 16.2109V22.2676C62.1327 23.2337 62.1873 23.9674 62.2967 24.4688C62.4061 24.9609 62.561 25.3939 62.7616 25.7676V26H58.1405C57.9217 25.5443 57.7577 24.9883 57.6483 24.332C57.548 23.6667 57.4979 22.9831 57.4979 22.2812ZM58.0584 16.9629L58.0858 19.4238H56.0487C55.6203 19.4238 55.2557 19.4831 54.9549 19.6016C54.6633 19.7201 54.4263 19.8841 54.244 20.0938C54.0708 20.2943 53.9432 20.5221 53.8612 20.7773C53.7883 21.0326 53.7518 21.3014 53.7518 21.584C53.7518 21.8574 53.8156 22.1035 53.9432 22.3223C54.0799 22.5319 54.2622 22.696 54.4901 22.8145C54.7179 22.9329 54.9732 22.9922 55.2557 22.9922C55.7661 22.9922 56.1991 22.8965 56.5545 22.7051C56.9191 22.5046 57.1971 22.263 57.3885 21.9805C57.5799 21.6979 57.6756 21.4336 57.6756 21.1875L58.6873 23.0742C58.5051 23.4388 58.2954 23.8079 58.0584 24.1816C57.8306 24.5553 57.5435 24.9017 57.1971 25.2207C56.8599 25.5306 56.4452 25.7858 55.953 25.9863C55.4608 26.1777 54.8638 26.2734 54.162 26.2734C53.2505 26.2734 52.412 26.0866 51.6463 25.7129C50.8898 25.3392 50.2837 24.8197 49.828 24.1543C49.3722 23.4798 49.1444 22.7051 49.1444 21.8301C49.1444 21.0645 49.2811 20.3809 49.5545 19.7793C49.8371 19.1777 50.2609 18.6673 50.826 18.248C51.3911 17.8288 52.1112 17.5098 52.9862 17.291C53.8612 17.0723 54.8911 16.9629 56.076 16.9629H58.0584ZM67.3777 14.8711V26H62.7703V11.207H67.077L67.3777 14.8711ZM71.7527 11.0977L71.6707 15.377C71.4884 15.3587 71.2423 15.3359 70.9324 15.3086C70.6225 15.2812 70.3628 15.2676 70.1531 15.2676C69.6154 15.2676 69.1505 15.3314 68.7586 15.459C68.3758 15.5775 68.0568 15.7598 67.8016 16.0059C67.5555 16.2428 67.3732 16.5436 67.2547 16.9082C67.1453 17.2728 67.0952 17.6966 67.1043 18.1797L66.2703 17.6328C66.2703 16.6393 66.366 15.737 66.5574 14.9258C66.7579 14.1055 67.0405 13.3991 67.4051 12.8066C67.7697 12.2051 68.2117 11.7448 68.7313 11.4258C69.2508 11.0977 69.8341 10.9336 70.4813 10.9336C70.7091 10.9336 70.9324 10.9473 71.1512 10.9746C71.379 11.002 71.5796 11.043 71.7527 11.0977ZM79.6091 22.6094V5H84.2439V26H80.0877L79.6091 22.6094ZM70.531 18.7812V18.4941C70.531 17.373 70.6541 16.3522 70.9002 15.4316C71.1462 14.502 71.5108 13.7044 71.9939 13.0391C72.477 12.3646 73.0785 11.8451 73.7986 11.4805C74.5186 11.1159 75.3481 10.9336 76.2869 10.9336C77.1254 10.9336 77.8591 11.1296 78.488 11.5215C79.117 11.9043 79.6547 12.4421 80.1013 13.1348C80.5479 13.8275 80.9125 14.6387 81.1951 15.5684C81.4776 16.4889 81.6918 17.4824 81.8377 18.5488V18.8906C81.6918 19.8932 81.4776 20.8411 81.1951 21.7344C80.9125 22.6185 80.5479 23.4023 80.1013 24.0859C79.6547 24.7695 79.1124 25.3073 78.4744 25.6992C77.8455 26.082 77.1072 26.2734 76.2595 26.2734C75.3207 26.2734 74.4913 26.0866 73.7712 25.7129C73.0603 25.3392 72.4633 24.8151 71.9802 24.1406C71.5063 23.4661 71.1462 22.6732 70.9002 21.7617C70.6541 20.8503 70.531 19.8568 70.531 18.7812ZM75.1384 18.4941V18.7812C75.1384 19.3372 75.1749 19.8522 75.2478 20.3262C75.3207 20.8001 75.4438 21.2194 75.617 21.584C75.7992 21.9395 76.0362 22.2174 76.3279 22.418C76.6287 22.6185 76.9978 22.7188 77.4353 22.7188C78.0278 22.7188 78.5154 22.5775 78.8982 22.2949C79.2901 22.0124 79.5772 21.6113 79.7595 21.0918C79.9509 20.5723 80.033 19.9616 80.0056 19.2598V18.1797C80.0239 17.5781 79.9828 17.0495 79.8826 16.5938C79.7823 16.1289 79.6228 15.7415 79.4041 15.4316C79.1944 15.1217 78.9255 14.8893 78.5974 14.7344C78.2784 14.5703 77.9002 14.4883 77.4627 14.4883C77.0343 14.4883 76.6697 14.5885 76.3689 14.7891C76.0772 14.9896 75.8403 15.2721 75.658 15.6367C75.4757 15.9922 75.3435 16.416 75.2615 16.9082C75.1795 17.3913 75.1384 17.9199 75.1384 18.4941ZM92.5055 6.09375H96.4157L100.859 19.9434L105.302 6.09375H109.213L102.445 26H99.2731L92.5055 6.09375ZM90.1266 6.09375H94.1735L94.9255 21.3516V26H90.1266V6.09375ZM107.545 6.09375H111.605V26H106.793V21.3516L107.545 6.09375ZM120.186 22.2812V16.1836C120.186 15.7643 120.127 15.4043 120.008 15.1035C119.89 14.8027 119.703 14.5703 119.448 14.4062C119.193 14.2331 118.851 14.1465 118.423 14.1465C118.076 14.1465 117.78 14.2057 117.534 14.3242C117.288 14.4427 117.101 14.6204 116.973 14.8574C116.846 15.0944 116.782 15.3952 116.782 15.7598H112.174C112.174 15.0762 112.325 14.4427 112.626 13.8594C112.936 13.2669 113.373 12.752 113.938 12.3145C114.512 11.877 115.196 11.5397 115.989 11.3027C116.791 11.0566 117.684 10.9336 118.669 10.9336C119.844 10.9336 120.893 11.1296 121.813 11.5215C122.743 11.9134 123.477 12.5013 124.014 13.2852C124.552 14.0599 124.821 15.0352 124.821 16.2109V22.2676C124.821 23.2337 124.876 23.9674 124.985 24.4688C125.094 24.9609 125.249 25.3939 125.45 25.7676V26H120.829C120.61 25.5443 120.446 24.9883 120.337 24.332C120.236 23.6667 120.186 22.9831 120.186 22.2812ZM120.747 16.9629L120.774 19.4238H118.737C118.309 19.4238 117.944 19.4831 117.643 19.6016C117.352 19.7201 117.115 19.8841 116.932 20.0938C116.759 20.2943 116.631 20.5221 116.549 20.7773C116.477 21.0326 116.44 21.3014 116.44 21.584C116.44 21.8574 116.504 22.1035 116.631 22.3223C116.768 22.5319 116.95 22.696 117.178 22.8145C117.406 22.9329 117.661 22.9922 117.944 22.9922C118.454 22.9922 118.887 22.8965 119.243 22.7051C119.607 22.5046 119.885 22.263 120.077 21.9805C120.268 21.6979 120.364 21.4336 120.364 21.1875L121.376 23.0742C121.193 23.4388 120.984 23.8079 120.747 24.1816C120.519 24.5553 120.232 24.9017 119.885 25.2207C119.548 25.5306 119.133 25.7858 118.641 25.9863C118.149 26.1777 117.552 26.2734 116.85 26.2734C115.939 26.2734 115.1 26.0866 114.335 25.7129C113.578 25.3392 112.972 24.8197 112.516 24.1543C112.061 23.4798 111.833 22.7051 111.833 21.8301C111.833 21.0645 111.969 20.3809 112.243 19.7793C112.525 19.1777 112.949 18.6673 113.514 18.248C114.079 17.8288 114.799 17.5098 115.674 17.291C116.549 17.0723 117.579 16.9629 118.764 16.9629H120.747ZM129.328 11.207L131.406 15.2812L133.552 11.207H138.338L134.455 18.4121L138.543 26H133.716L131.406 21.625L129.109 26H124.283L128.371 18.4121L124.502 11.207H129.328Z" fill="#ffffff"/>

</g>
<!-- socials -->
<g id="facebook"><path d="M12.0558 4.70338H14.7192V0.198376C13.4296 0.0642841 12.134 -0.00191857 10.8375 4.23075e-05C6.98417 4.23075e-05 4.34917 2.35171 4.34917 6.65838V10.37H0V15.4134H4.34917V28.3334H9.5625V15.4134H13.8975L14.5492 10.37H9.5625V7.15421C9.5625 5.66671 9.95917 4.70338 12.0558 4.70338Z" fill="currentColor"/>
</g>
<g id="insta">
<path d="M21.7317 4.90167C21.3954 4.90167 21.0668 5.00137 20.7872 5.18817C20.5076 5.37497 20.2897 5.64047 20.1611 5.95111C20.0324 6.26174 19.9987 6.60355 20.0643 6.93332C20.1299 7.26309 20.2918 7.566 20.5296 7.80375C20.7673 8.0415 21.0702 8.20341 21.4 8.269C21.7298 8.3346 22.0716 8.30093 22.3822 8.17226C22.6929 8.04359 22.9584 7.8257 23.1452 7.54614C23.332 7.26657 23.4317 6.9379 23.4317 6.60167C23.4317 6.1508 23.2526 5.7184 22.9338 5.39959C22.6149 5.08077 22.1825 4.90167 21.7317 4.90167ZM28.2483 8.33C28.2208 7.15459 28.0006 5.99165 27.5967 4.8875C27.2365 3.94277 26.6758 3.08731 25.9533 2.38C25.2518 1.65385 24.3944 1.09675 23.4458 0.750833C22.3446 0.334561 21.1804 0.109381 20.0033 0.0849999C18.5017 -7.91624e-08 18.02 0 14.1667 0C10.3133 0 9.83167 -7.91624e-08 8.33 0.0849999C7.15297 0.109381 5.98874 0.334561 4.8875 0.750833C3.94071 1.10025 3.08399 1.65688 2.38 2.38C1.65385 3.0815 1.09675 3.93896 0.750833 4.8875C0.334561 5.98874 0.109381 7.15297 0.0849999 8.33C-7.91624e-08 9.83167 0 10.3133 0 14.1667C0 18.02 -7.91624e-08 18.5017 0.0849999 20.0033C0.109381 21.1804 0.334561 22.3446 0.750833 23.4458C1.09675 24.3944 1.65385 25.2518 2.38 25.9533C3.08399 26.6765 3.94071 27.2331 4.8875 27.5825C5.98874 27.9988 7.15297 28.224 8.33 28.2483C9.83167 28.3333 10.3133 28.3333 14.1667 28.3333C18.02 28.3333 18.5017 28.3333 20.0033 28.2483C21.1804 28.224 22.3446 27.9988 23.4458 27.5825C24.3944 27.2366 25.2518 26.6795 25.9533 25.9533C26.679 25.2487 27.2401 24.3924 27.5967 23.4458C28.0006 22.3417 28.2208 21.1787 28.2483 20.0033C28.2483 18.5017 28.3333 18.02 28.3333 14.1667C28.3333 10.3133 28.3333 9.83167 28.2483 8.33ZM25.6983 19.8333C25.688 20.7326 25.5252 21.6236 25.2167 22.4683C24.9905 23.0849 24.6272 23.6419 24.1542 24.0975C23.6947 24.5657 23.1387 24.9283 22.525 25.16C21.6802 25.4685 20.7893 25.6314 19.89 25.6417C18.4733 25.7125 17.9492 25.7267 14.2233 25.7267C10.4975 25.7267 9.97333 25.7267 8.55667 25.6417C7.62293 25.6592 6.69318 25.5154 5.80833 25.2167C5.22152 24.9731 4.69109 24.6114 4.25 24.1542C3.77979 23.6991 3.42103 23.1415 3.20167 22.525C2.8558 21.6681 2.66396 20.7569 2.635 19.8333C2.635 18.4167 2.55 17.8925 2.55 14.1667C2.55 10.4408 2.55 9.91667 2.635 8.5C2.64135 7.58066 2.80918 6.66959 3.13083 5.80833C3.38023 5.21037 3.76304 4.67735 4.25 4.25C4.6804 3.76291 5.21232 3.37605 5.80833 3.11667C6.67186 2.80506 7.582 2.6422 8.5 2.635C9.91667 2.635 10.4408 2.55 14.1667 2.55C17.8925 2.55 18.4167 2.55 19.8333 2.635C20.7326 2.64531 21.6236 2.80818 22.4683 3.11667C23.1121 3.35559 23.6899 3.74403 24.1542 4.25C24.6184 4.68517 24.9812 5.21721 25.2167 5.80833C25.5315 6.67099 25.6945 7.58169 25.6983 8.5C25.7692 9.91667 25.7833 10.4408 25.7833 14.1667C25.7833 17.8925 25.7692 18.4167 25.6983 19.8333ZM14.1667 6.89917C12.7299 6.90197 11.3262 7.33058 10.1329 8.13084C8.93966 8.93111 8.01037 10.0671 7.46248 11.3953C6.91459 12.7235 6.77269 14.1843 7.05471 15.5932C7.33672 17.002 8.03 18.2956 9.04694 19.3106C10.0639 20.3255 11.3588 21.0163 12.7682 21.2955C14.1776 21.5748 15.6381 21.4301 16.9652 20.8796C18.2924 20.3291 19.4266 19.3976 20.2245 18.2028C21.0225 17.008 21.4483 15.6034 21.4483 14.1667C21.4502 13.2106 21.263 12.2635 20.8976 11.38C20.5321 10.4965 19.9956 9.69398 19.3189 9.01857C18.6422 8.34316 17.8386 7.80821 16.9544 7.44448C16.0702 7.08076 15.1228 6.89543 14.1667 6.89917ZM14.1667 18.8842C13.2336 18.8842 12.3216 18.6075 11.5458 18.0891C10.77 17.5708 10.1653 16.834 9.80827 15.972C9.45121 15.11 9.35779 14.1614 9.53981 13.2463C9.72184 12.3312 10.1711 11.4906 10.8309 10.8309C11.4906 10.1711 12.3312 9.72184 13.2463 9.53981C14.1614 9.35779 15.11 9.45121 15.972 9.80827C16.834 10.1653 17.5708 10.77 18.0891 11.5458C18.6075 12.3216 18.8842 13.2336 18.8842 14.1667C18.8842 14.7862 18.7621 15.3996 18.5251 15.972C18.288 16.5443 17.9405 17.0644 17.5024 17.5024C17.0644 17.9405 16.5443 18.288 15.972 18.5251C15.3996 18.7621 14.7862 18.8842 14.1667 18.8842Z" fill="currentColor"/>
</g>

<g id="twitter">
<path d="M31.1658 1.85305C31.1658 1.603 31.0996 1.35742 30.9739 1.14125C30.8482 0.925085 30.6676 0.746033 30.4503 0.622284C30.233 0.498536 29.9868 0.434501 29.7368 0.436685C29.4868 0.438868 29.2418 0.507193 29.0267 0.634717C28.1971 1.12887 27.3039 1.50731 26.3718 1.75955C25.0415 0.618106 23.3449 -0.00645189 21.592 5.0262e-05C19.6692 0.00235451 17.8226 0.751779 16.442 2.09009C15.0614 3.4284 14.2549 5.25084 14.1928 7.17263C10.4015 6.56818 6.96531 4.58938 4.53959 1.61363C4.39342 1.43651 4.20685 1.29709 3.99557 1.2071C3.78429 1.11712 3.55449 1.0792 3.3255 1.09655C3.09657 1.1155 2.87569 1.18989 2.68193 1.3133C2.48818 1.43671 2.32738 1.60543 2.21342 1.80488C1.62907 2.82474 1.29349 3.96803 1.23392 5.14192C1.17436 6.31581 1.39248 7.4872 1.87058 8.56097L1.86775 8.56238C1.6524 8.69471 1.47467 8.88017 1.35162 9.10096C1.22858 9.32175 1.16434 9.57046 1.16508 9.82322C1.16281 10.0312 1.1756 10.239 1.20333 10.4451C1.34801 12.2274 2.13782 13.8956 3.42467 15.1371C3.33735 15.3036 3.2841 15.4858 3.26804 15.6731C3.25199 15.8604 3.27345 16.0491 3.33117 16.228C3.89214 17.9764 5.08537 19.4525 6.67734 20.3675C5.05974 20.9928 3.31317 21.2108 1.5915 21.0021C1.273 20.9625 0.950478 21.0322 0.676772 21.1999C0.403065 21.3675 0.194394 21.6231 0.0849324 21.9248C-0.0245287 22.2265 -0.0282907 22.5565 0.0742624 22.8606C0.176816 23.1648 0.379605 23.4251 0.649418 23.5989C3.61055 25.5058 7.05825 26.5194 10.5803 26.5186C14.5742 26.5636 18.471 25.2874 21.6646 22.8886C24.8582 20.4897 27.1695 17.1027 28.239 13.2544C28.739 11.5781 28.9943 9.83845 28.9969 8.08922L28.9955 7.80588C29.7352 7.00802 30.3082 6.07051 30.6809 5.04831C31.0536 4.02611 31.2185 2.93979 31.1658 1.85305ZM26.4823 6.40338C26.2481 6.67994 26.1294 7.03609 26.1508 7.39788C26.165 7.63163 26.1636 7.8668 26.1636 8.08922C26.1606 9.56706 25.944 11.0367 25.5204 12.4525C24.6473 15.7273 22.7004 18.6144 19.9916 20.6513C17.2827 22.6881 13.9687 23.757 10.5803 23.6867C9.36352 23.6869 8.151 23.5438 6.96775 23.2603C8.47694 22.7736 9.88801 22.0235 11.1356 21.0446C11.3656 20.8638 11.534 20.6161 11.6176 20.3356C11.7012 20.0552 11.6959 19.7558 11.6025 19.4785C11.509 19.2011 11.3319 18.9596 11.0956 18.787C10.8593 18.6144 10.5754 18.5192 10.2828 18.5145C9.10511 18.496 7.98062 18.0212 7.14625 17.1899C7.35781 17.1502 7.56795 17.1006 7.77667 17.0411C8.0827 16.9541 8.35055 16.7666 8.53705 16.5089C8.72355 16.2511 8.81785 15.9381 8.80476 15.6202C8.79167 15.3023 8.67195 14.9981 8.46489 14.7565C8.25783 14.5149 7.97549 14.3501 7.66334 14.2885C6.97978 14.1535 6.33658 13.8627 5.78374 13.4386C5.23091 13.0145 4.78334 12.4686 4.47584 11.8434C4.7319 11.8784 4.98961 11.9001 5.24792 11.9086C5.55488 11.9136 5.85548 11.8208 6.10613 11.6435C6.35677 11.4662 6.54444 11.2137 6.64192 10.9226C6.73549 10.629 6.73079 10.3129 6.62853 10.0222C6.52627 9.73154 6.33203 9.48213 6.07525 9.3118C5.45183 8.89681 4.94108 8.33365 4.58876 7.67278C4.23644 7.01191 4.05356 6.27396 4.0565 5.52505C4.0565 5.43155 4.05934 5.33663 4.065 5.24455C7.24041 8.20628 11.3593 9.95216 15.6958 10.1746C15.9148 10.1829 16.1328 10.1413 16.3333 10.0529C16.5338 9.96455 16.7116 9.83175 16.8533 9.66455C16.9935 9.49632 17.0929 9.29785 17.1435 9.08473C17.1942 8.87161 17.1947 8.64966 17.1451 8.4363C17.064 8.09801 17.0226 7.75142 17.0218 7.40355C17.0233 6.19193 17.5053 5.03036 18.3621 4.17361C19.2188 3.31686 20.3804 2.83488 21.592 2.83338C22.2155 2.83154 22.8327 2.959 23.4045 3.20771C23.9763 3.45643 24.4903 3.82099 24.9141 4.27838C25.0775 4.45422 25.2832 4.58533 25.5115 4.65922C25.7399 4.73312 25.9834 4.74734 26.2188 4.70055C26.8008 4.58743 27.3745 4.43502 27.9358 4.24438C27.5531 5.02755 27.0639 5.75408 26.4823 6.40338Z" fill="currentColor"/>
</g>

<g id="skype">
<path d="M20.03 15.3167C19.4623 14.9522 18.8461 14.6694 18.1996 14.4766C17.803 14.3562 17.3638 14.2386 16.9105 14.1267C16.5138 14.0162 16.0435 13.9029 15.4626 13.7754C14.7695 13.6301 14.0892 13.4292 13.4283 13.1747C13.0877 13.0424 12.7871 12.8242 12.5556 12.5415C12.3863 12.3101 12.3058 12.0254 12.329 11.7396C12.3284 11.4332 12.4307 11.1354 12.6194 10.8939C12.8835 10.5846 13.226 10.3521 13.611 10.221C14.2586 9.99844 14.9411 9.89477 15.6255 9.91495C16.1552 9.90617 16.6832 9.97587 17.1924 10.1218C17.5301 10.2168 17.8481 10.3713 18.1316 10.578C18.3149 10.7088 18.4713 10.8738 18.592 11.0639C18.6795 11.229 18.7988 11.3751 18.943 11.4939C19.0871 11.6127 19.2534 11.7019 19.4322 11.7561C19.6109 11.8104 19.7987 11.8288 19.9846 11.8103C20.1705 11.7917 20.3509 11.7366 20.5154 11.648C20.6799 11.5595 20.8252 11.4392 20.9431 11.2943C21.0609 11.1493 21.149 10.9825 21.2021 10.8033C21.2552 10.6242 21.2723 10.4364 21.2526 10.2506C21.2328 10.0648 21.1764 9.88479 21.0868 9.72087C20.7881 9.19248 20.3846 8.73066 19.901 8.3637C19.3424 7.93455 18.7087 7.61316 18.0325 7.41596C17.2518 7.18531 16.441 7.07262 15.627 7.08162C14.5922 7.05935 13.5622 7.22742 12.5882 7.57745C11.7074 7.89811 10.9336 8.45845 10.3541 9.19529C9.79911 9.92796 9.49864 10.8219 9.49846 11.741C9.47547 12.6561 9.76532 13.5516 10.3201 14.2797C10.8557 14.9543 11.5579 15.4777 12.3573 15.7984C12.9614 16.0308 13.5798 16.2239 14.2089 16.3764C14.2202 16.3806 14.2287 16.3905 14.24 16.3934C14.512 16.4755 14.9455 16.5846 15.5717 16.7192C15.8168 16.773 16.0463 16.8311 16.2758 16.8892C16.2985 16.8949 16.331 16.902 16.3523 16.909L16.3778 16.9119C16.7291 17.0025 17.0677 17.0946 17.378 17.1895C17.7591 17.3011 18.1229 17.4651 18.4589 17.6769C18.6684 17.8085 18.8444 17.9869 18.9731 18.1982C19.0977 18.456 19.1552 18.741 19.1403 19.027C19.1599 19.397 19.053 19.7627 18.8371 20.064C18.5456 20.4433 18.1512 20.731 17.701 20.8927C17.0298 21.1517 16.3134 21.2731 15.5944 21.2497C14.7628 21.2817 13.9357 21.1146 13.1818 20.7624C12.8336 20.5769 12.5344 20.3113 12.3091 19.9875C12.151 19.7802 12.0521 19.5339 12.023 19.2749C12.023 18.8991 11.8737 18.5388 11.608 18.2731C11.3423 18.0075 10.982 17.8582 10.6063 17.8582C10.2306 17.8582 9.87023 18.0075 9.60456 18.2731C9.33888 18.5388 9.18962 18.8991 9.18962 19.2749C9.21297 20.1108 9.48744 20.9204 9.97729 21.5982C10.4668 22.3032 11.1189 22.88 11.8785 23.2798C13.0341 23.8436 14.309 24.1192 15.5944 24.083C16.6866 24.1095 17.7728 23.9143 18.7875 23.5093C19.7308 23.1473 20.5497 22.5212 21.1463 21.7059C21.7134 20.9115 22.0041 19.9529 21.9736 18.9774C21.9868 18.2211 21.8037 17.4743 21.4424 16.8099C21.0934 16.21 20.6099 15.6994 20.03 15.3181V15.3167ZM30.2597 17.9772C30.6417 15.649 30.4638 13.2634 29.741 11.0175C29.0181 8.77171 27.771 6.73023 26.1027 5.06196C24.4344 3.39368 22.393 2.14654 20.1471 1.42368C17.9013 0.700819 15.5156 0.523009 13.1875 0.904956C11.4685 0.0807667 9.53607 -0.189516 7.65694 0.131415C5.77781 0.452347 4.04464 1.34867 2.69665 2.69665C1.34867 4.04464 0.452347 5.77781 0.131415 7.65694C-0.189516 9.53607 0.0807667 11.4685 0.904956 13.1875C0.523325 15.5154 0.701319 17.9007 1.42422 20.1462C2.14712 22.3918 3.39416 24.4329 5.06224 26.101C6.73031 27.7691 8.77149 29.0161 11.017 29.739C13.2625 30.4619 15.6479 30.6399 17.9758 30.2583C19.6948 31.0825 21.6272 31.3528 23.5063 31.0318C25.3854 30.7109 27.1186 29.8146 28.4666 28.4666C29.8146 27.1186 30.7109 25.3854 31.0318 23.5063C31.3528 21.6272 31.0825 19.6948 30.2583 17.9758L30.2597 17.9772ZM21.9566 28.3316C20.8817 28.3312 19.8243 28.0592 18.8825 27.5411C18.5903 27.3801 18.2508 27.327 17.9234 27.391C16.1774 27.7392 14.376 27.6956 12.6489 27.2632C10.9219 26.8309 9.3123 26.0207 7.93633 24.8909C6.56035 23.7612 5.45227 22.3402 4.69201 20.7303C3.93175 19.1205 3.53827 17.362 3.53996 15.5816C3.54141 14.7949 3.61922 14.0102 3.77229 13.2385C3.83638 12.911 3.78322 12.5715 3.62212 12.2794C2.95693 11.0695 2.70249 9.67644 2.89705 8.30957C3.09161 6.94271 3.72465 5.67594 4.701 4.69976C5.67734 3.72357 6.94421 3.09073 8.31111 2.8964C9.67801 2.70206 11.0711 2.95674 12.2808 3.62212C12.5732 3.7839 12.9134 3.83709 13.2413 3.77229C14.9871 3.4243 16.7885 3.4681 18.5153 3.90054C20.2422 4.33298 21.8516 5.14326 23.2274 6.27297C24.6032 7.40267 25.7111 8.82362 26.4713 10.4333C27.2315 12.0431 27.6249 13.8014 27.6233 15.5816C27.6218 16.3684 27.544 17.1531 27.391 17.9248C27.3269 18.2522 27.38 18.5917 27.5411 18.8839C28.0755 19.8544 28.3477 20.9475 28.3308 22.0553C28.3139 23.1632 28.0085 24.2474 27.4447 25.2012C26.8809 26.155 26.0782 26.9453 25.1158 27.4943C24.1534 28.0433 23.0646 28.3318 21.9566 28.3316Z" fill="currentColor"/>
</g>
<g id="linked">
<path d="M22.5457 10.5726C21.2776 10.5723 20.0291 10.8863 18.912 11.4863C18.8099 11.2176 18.6286 10.9863 18.392 10.8231C18.1554 10.6599 17.8748 10.5725 17.5874 10.5726H11.9207C11.545 10.5726 11.1846 10.7218 10.919 10.9875C10.6533 11.2532 10.504 11.6135 10.504 11.9892V28.9892C10.504 29.365 10.6533 29.7253 10.919 29.991C11.1846 30.2566 11.545 30.4059 11.9207 30.4059H17.5874C17.9631 30.4059 18.3234 30.2566 18.5891 29.991C18.8548 29.7253 19.004 29.365 19.004 28.9892V21.1976C19.004 20.8218 19.1533 20.4615 19.419 20.1958C19.6846 19.9302 20.045 19.7809 20.4207 19.7809C20.7964 19.7809 21.1568 19.9302 21.4224 20.1958C21.6881 20.4615 21.8374 20.8218 21.8374 21.1976V28.9892C21.8374 29.365 21.9866 29.7253 22.2523 29.991C22.518 30.2566 22.8783 30.4059 23.254 30.4059H28.9207C29.2964 30.4059 29.6568 30.2566 29.9224 29.991C30.1881 29.7253 30.3374 29.365 30.3374 28.9892V18.3642C30.3347 16.2986 29.513 14.3182 28.0523 12.8576C26.5917 11.3969 24.6114 10.5752 22.5457 10.5726ZM27.504 27.5726H24.6707V21.1976C24.6707 20.0704 24.2229 18.9894 23.4259 18.1924C22.6289 17.3953 21.5479 16.9476 20.4207 16.9476C19.2935 16.9476 18.2125 17.3953 17.4155 18.1924C16.6185 18.9894 16.1707 20.0704 16.1707 21.1976V27.5726H13.3374V13.4059H16.1707V14.4018C16.1706 14.6954 16.2617 14.9819 16.4314 15.2215C16.6012 15.4611 16.8412 15.642 17.1183 15.7392C17.3953 15.8365 17.6958 15.8452 17.978 15.7642C18.2603 15.6832 18.5104 15.5166 18.6938 15.2872C19.3298 14.4799 20.202 13.8913 21.1887 13.6036C22.1753 13.3159 23.2272 13.3435 24.1974 13.6825C25.1677 14.0215 26.0078 14.655 26.6006 15.4946C27.1934 16.3342 27.5093 17.3379 27.504 18.3656V27.5726ZM7.6707 10.5726H2.00404C1.62831 10.5726 1.26798 10.7218 1.0023 10.9875C0.736625 11.2532 0.58737 11.6135 0.58737 11.9892V28.9892C0.58737 29.365 0.736625 29.7253 1.0023 29.991C1.26798 30.2566 1.62831 30.4059 2.00404 30.4059H7.6707C8.04643 30.4059 8.40676 30.2566 8.67244 29.991C8.93811 29.7253 9.08737 29.365 9.08737 28.9892V11.9892C9.08737 11.6135 8.93811 11.2532 8.67244 10.9875C8.40676 10.7218 8.04643 10.5726 7.6707 10.5726ZM6.25404 27.5726H3.4207V13.4059H6.25404V27.5726ZM4.85862 0.00847772C4.23825 -0.0293199 3.61668 0.0595418 3.03175 0.269652C2.44682 0.479762 1.91077 0.806725 1.45625 1.23063C1.00173 1.65454 0.638237 2.16652 0.387912 2.7354C0.137587 3.30428 0.0056648 3.91816 0.000178462 4.53965C-0.00530788 5.16115 0.115756 5.77726 0.355999 6.35047C0.596242 6.92368 0.950638 7.442 1.39761 7.87387C1.84458 8.30573 2.37476 8.64211 2.95589 8.86251C3.53702 9.08291 4.15693 9.18273 4.77787 9.15589H4.81754C5.43826 9.19136 6.0597 9.10007 6.644 8.88759C7.2283 8.67512 7.76322 8.3459 8.21618 7.92001C8.66913 7.49411 9.03063 6.98046 9.27865 6.41034C9.52667 5.84021 9.65601 5.22556 9.65881 4.60384C9.6616 3.98211 9.53778 3.36632 9.29489 2.794C9.052 2.22167 8.69513 1.70479 8.24602 1.27484C7.79691 0.844896 7.26497 0.51089 6.6826 0.293175C6.10023 0.0754593 5.47963 -0.021407 4.85862 0.00847772ZM4.81754 6.32256H4.77787C4.53285 6.35248 4.28426 6.32965 4.04879 6.2556C3.81331 6.18156 3.59639 6.05801 3.41258 5.89326C3.22878 5.7285 3.08233 5.52634 2.98306 5.30034C2.88379 5.07434 2.83401 4.82972 2.83704 4.58289C2.83704 3.52464 3.63037 2.84181 4.85862 2.84181C5.10599 2.80926 5.35745 2.83003 5.59613 2.90273C5.8348 2.97543 6.05514 3.09838 6.24235 3.26331C6.42956 3.42825 6.5793 3.63134 6.6815 3.85895C6.7837 4.08655 6.83599 4.3334 6.83487 4.58289C6.83487 5.63973 6.04154 6.32256 4.81612 6.32256H4.81754Z" fill="currentColor"/>
</g>
<g id="dribbble">
<path d="M14.1667 0C11.3648 0 8.62579 0.83086 6.29609 2.38751C3.9664 3.94417 2.15062 6.1567 1.07838 8.74532C0.00613819 11.3339 -0.274409 14.1824 0.272215 16.9304C0.818839 19.6785 2.16808 22.2028 4.14933 24.184C6.13057 26.1653 8.65483 27.5145 11.4029 28.0611C14.151 28.6077 16.9994 28.3272 19.588 27.255C22.1766 26.1827 24.3892 24.3669 25.9458 22.0372C27.5025 19.7075 28.3333 16.9686 28.3333 14.1667C28.3333 12.3063 27.9669 10.4641 27.255 8.74532C26.543 7.02654 25.4995 5.46482 24.184 4.14932C22.8685 2.83382 21.3068 1.79031 19.588 1.07837C17.8692 0.366432 16.0271 0 14.1667 0ZM14.1667 2.83333C17.0775 2.83217 19.8755 3.95949 21.9725 5.97833C19.8079 7.24795 17.5141 8.28324 15.13 9.06667C13.9435 7.02217 12.5832 5.08362 11.0642 3.2725C12.0728 2.98208 13.1171 2.83426 14.1667 2.83333ZM8.34417 4.4625C9.82839 6.16038 11.1605 7.98546 12.325 9.91667C9.54423 10.6072 6.69022 10.9592 3.82501 10.965H3.31501C4.11854 8.24449 5.91308 5.92423 8.34417 4.4625ZM5.66667 21.6892C3.82324 19.6191 2.81362 16.9385 2.83334 14.1667V13.7558H3.79667C7.15045 13.7259 10.4853 13.2494 13.7133 12.3392C14.1667 13.2033 14.5917 14.0958 15.0025 15.0167C12.7946 15.795 10.7384 16.9502 8.92501 18.4308L8.50001 18.7708C7.49009 19.6778 6.54343 20.6529 5.66667 21.6892ZM14.1667 25.5C11.9086 25.505 9.70162 24.8286 7.83417 23.5592C8.52386 22.7681 9.26195 22.0205 10.0442 21.3208L10.4975 20.9383C12.1737 19.5286 14.0944 18.4386 16.1642 17.7225C17.0161 20.026 17.6794 22.3949 18.1475 24.8058C16.8722 25.2715 15.5243 25.5065 14.1667 25.5ZM20.7258 23.3892C20.2623 21.2451 19.6566 19.1343 18.9125 17.0708H19.3942C19.45 17.057 19.5083 17.057 19.5642 17.0708H20.5417C22.0325 17.0751 23.5121 17.3289 24.9192 17.8217C24.1461 20.0747 22.6778 22.0241 20.7258 23.3892ZM20.5417 14.1667H19.6633C19.4799 14.1436 19.2943 14.1436 19.1108 14.1667C18.7258 14.1903 18.3426 14.2376 17.9633 14.3083H17.8217C17.4108 13.3592 16.9858 12.4383 16.5183 11.475C19.0551 10.6038 21.4914 9.46402 23.7858 8.075C24.924 9.9016 25.5186 12.0145 25.5 14.1667V14.8892C23.8945 14.3936 22.2219 14.1499 20.5417 14.1667Z" fill="currentColor"/>
</g>

<!-- contacts -->
<g id="mail">
<path d="M17 0H3C2.20435 0 1.44129 0.316071 0.87868 0.87868C0.316071 1.44129 0 2.20435 0 3V13C0 13.7956 0.316071 14.5587 0.87868 15.1213C1.44129 15.6839 2.20435 16 3 16H17C17.7956 16 18.5587 15.6839 19.1213 15.1213C19.6839 14.5587 20 13.7956 20 13V3C20 2.20435 19.6839 1.44129 19.1213 0.87868C18.5587 0.316071 17.7956 0 17 0ZM16.59 2L10.71 7.88C10.617 7.97373 10.5064 8.04812 10.3846 8.09889C10.2627 8.14966 10.132 8.1758 10 8.1758C9.86799 8.1758 9.73728 8.14966 9.61542 8.09889C9.49356 8.04812 9.38296 7.97373 9.29 7.88L3.41 2H16.59ZM18 13C18 13.2652 17.8946 13.5196 17.7071 13.7071C17.5196 13.8946 17.2652 14 17 14H3C2.73478 14 2.48043 13.8946 2.29289 13.7071C2.10536 13.5196 2 13.2652 2 13V3.41L7.88 9.29C8.4425 9.8518 9.205 10.1674 10 10.1674C10.795 10.1674 11.5575 9.8518 12.12 9.29L18 3.41V13Z" fill="white"/>
</g>
<g id="phone">
<path d="M18 10.18V8C18 5.87827 17.1571 3.84344 15.6569 2.34315C14.1566 0.842855 12.1217 0 10 0C7.87827 0 5.84344 0.842855 4.34315 2.34315C2.84285 3.84344 2 5.87827 2 8V10.18C1.41645 10.3863 0.910998 10.7681 0.552938 11.2729C0.194879 11.7778 0.00173951 12.3811 0 13V15C0 15.7956 0.316071 16.5587 0.87868 17.1213C1.44129 17.6839 2.20435 18 3 18H6C6.26522 18 6.51957 17.8946 6.70711 17.7071C6.89464 17.5196 7 17.2652 7 17V11C7 10.7348 6.89464 10.4804 6.70711 10.2929C6.51957 10.1054 6.26522 10 6 10H4V8C4 6.4087 4.63214 4.88258 5.75736 3.75736C6.88258 2.63214 8.4087 2 10 2C11.5913 2 13.1174 2.63214 14.2426 3.75736C15.3679 4.88258 16 6.4087 16 8V10H14C13.7348 10 13.4804 10.1054 13.2929 10.2929C13.1054 10.4804 13 10.7348 13 11V17C13 17.2652 13.1054 17.5196 13.2929 17.7071C13.4804 17.8946 13.7348 18 14 18H17C17.7956 18 18.5587 17.6839 19.1213 17.1213C19.6839 16.5587 20 15.7956 20 15V13C19.9983 12.3811 19.8051 11.7778 19.4471 11.2729C19.089 10.7681 18.5835 10.3863 18 10.18ZM5 12V16H3C2.73478 16 2.48043 15.8946 2.29289 15.7071C2.10536 15.5196 2 15.2652 2 15V13C2 12.7348 2.10536 12.4804 2.29289 12.2929C2.48043 12.1054 2.73478 12 3 12H5ZM18 15C18 15.2652 17.8946 15.5196 17.7071 15.7071C17.5196 15.8946 17.2652 16 17 16H15V12H17C17.2652 12 17.5196 12.1054 17.7071 12.2929C17.8946 12.4804 18 12.7348 18 13V15Z" fill="white"/>
</g>

<!-- quotes -->
<g id="quote">
<path d="M37.9936 49.75C36.1352 49.75 34.3519 50.0333 32.5769 50.2917C33.1519 48.3583 33.7436 46.3917 34.6936 44.625C35.6436 42.0583 37.1269 39.8333 38.6019 37.5917C39.8352 35.1667 42.0102 33.525 43.6102 31.45C45.2852 29.4333 47.5686 28.0917 49.3769 26.4167C51.1519 24.6667 53.4769 23.7917 55.3269 22.5583C57.2602 21.45 58.9436 20.225 60.7436 19.6417L65.2352 17.7917L69.1852 16.15L65.1436 0L60.1686 1.2C58.5769 1.6 56.6352 2.06666 54.4269 2.625C52.1686 3.04166 49.7602 4.18333 47.0769 5.225C44.4269 6.40833 41.3602 7.20833 38.5102 9.10833C35.6436 10.925 32.3352 12.4417 29.4186 14.875C26.5936 17.3833 23.1852 19.5583 20.6686 22.75C17.9186 25.7333 15.2019 28.8667 13.0936 32.4333C10.6519 35.8333 8.99356 39.5667 7.24356 43.2583C5.66023 46.95 4.38523 50.725 3.34356 54.3917C1.36856 61.7417 0.485227 68.725 0.14356 74.7C-0.139773 80.6833 0.0268938 85.6583 0.376894 89.2583C0.501894 90.9583 0.735228 92.6083 0.901895 93.75L1.11023 95.15L1.32689 95.1C2.80907 102.024 6.22109 108.386 11.1683 113.451C16.1154 118.517 22.3956 122.078 29.2822 123.724C36.1689 125.369 43.3806 125.031 50.0832 122.749C56.7858 120.466 62.7053 116.333 67.157 110.827C71.6087 105.321 74.4106 98.6677 75.2387 91.6358C76.0668 84.6039 74.8872 77.4813 71.8363 71.0918C68.7855 64.7024 63.988 59.3072 57.999 55.5304C52.01 51.7536 45.074 49.7495 37.9936 49.75ZM129.66 49.75C127.802 49.75 126.019 50.0333 124.244 50.2917C124.819 48.3583 125.41 46.3917 126.36 44.625C127.31 42.0583 128.794 39.8333 130.269 37.5917C131.502 35.1667 133.677 33.525 135.277 31.45C136.952 29.4333 139.235 28.0917 141.044 26.4167C142.819 24.6667 145.144 23.7917 146.994 22.5583C148.927 21.45 150.61 20.225 152.41 19.6417L156.902 17.7917L160.852 16.15L156.81 0L151.835 1.2C150.244 1.6 148.302 2.06666 146.094 2.625C143.835 3.04166 141.427 4.18333 138.744 5.225C136.102 6.41667 133.027 7.20833 130.177 9.11666C127.31 10.9333 124.002 12.45 121.085 14.8833C118.26 17.3917 114.852 19.5667 112.335 22.75C109.585 25.7333 106.869 28.8667 104.76 32.4333C102.319 35.8333 100.66 39.5667 98.9102 43.2583C97.3269 46.95 96.0519 50.725 95.0102 54.3917C93.0352 61.7417 92.1519 68.725 91.8102 74.7C91.5269 80.6833 91.6936 85.6583 92.0436 89.2583C92.1686 90.9583 92.4019 92.6083 92.5686 93.75L92.7769 95.15L92.9936 95.1C94.4757 102.024 97.8878 108.386 102.835 113.451C107.782 118.517 114.062 122.078 120.949 123.724C127.836 125.369 135.047 125.031 141.75 122.749C148.452 120.466 154.372 116.333 158.824 110.827C163.275 105.321 166.077 98.6677 166.905 91.6358C167.733 84.6039 166.554 77.4813 163.503 71.0918C160.452 64.7024 155.655 59.3072 149.666 55.5304C143.677 51.7536 136.741 49.7495 129.66 49.75Z" fill="#333333" fill-opacity="0.1"/>
</g>

<!-- arrow -->
<g id="arrow">
<path fill-rule="evenodd" clip-rule="evenodd" d="M0 4.85205C0 4.70909 0.0494191 4.57198 0.137386 4.47089C0.225352 4.3698 0.344661 4.31301 0.469064 4.31301H11.5324L8.58013 0.921363C8.49205 0.820146 8.44257 0.682865 8.44257 0.539722C8.44257 0.396579 8.49205 0.259298 8.58013 0.158081C8.66821 0.0568633 8.78766 3.37257e-09 8.91222 0C9.03679 -3.37257e-09 9.15625 0.0568633 9.24432 0.158081L12.9968 4.47041C13.0405 4.52048 13.0752 4.57997 13.0988 4.64545C13.1225 4.71094 13.1346 4.78115 13.1346 4.85205C13.1346 4.92295 13.1225 4.99316 13.0988 5.05865C13.0752 5.12414 13.0405 5.18362 12.9968 5.23369L9.24432 9.54602C9.15625 9.64724 9.03679 9.7041 8.91222 9.7041C8.78766 9.7041 8.66821 9.64724 8.58013 9.54602C8.49205 9.4448 8.44257 9.30752 8.44257 9.16438C8.44257 9.02124 8.49205 8.88396 8.58013 8.78274L11.5324 5.39109H0.469064C0.344661 5.39109 0.225352 5.3343 0.137386 5.23321C0.0494191 5.13212 0 4.99501 0 4.85205Z" fill="currentColor"/>
</g>

<!-- footer -->

<g id="footer-facebook">
<path d="M30.6117 0H1.7883C1.31401 0 0.859152 0.18841 0.523781 0.523781C0.18841 0.859152 0 1.31401 0 1.7883V30.6122C0.000119328 31.0864 0.188582 31.5411 0.52394 31.8764C0.859299 32.2117 1.31409 32.4 1.7883 32.4H17.3057V19.8531H13.0833V14.9634H17.3057V11.3571C17.3057 7.1721 19.8617 4.89375 23.5949 4.89375C25.3832 4.89375 26.9199 5.0265 27.3681 5.08635V9.4599L24.7788 9.46125C22.7484 9.46125 22.3556 10.426 22.3556 11.8417V14.9638H27.1976L26.5671 19.8536H22.3556V32.4H30.6122C31.0864 32.3999 31.5411 32.2114 31.8764 31.8761C32.2117 31.5407 32.4 31.0859 32.4 30.6117V1.7883C32.4 1.31401 32.2116 0.859152 31.8762 0.523781C31.5408 0.18841 31.086 0 30.6117 0V0Z" fill="currentColor"/>

</g>

<g id="footer-twitter">
<path d="M34.6513 3.3336C33.3539 3.90837 31.9777 4.28546 30.5685 4.45231C32.0528 3.56419 33.1636 2.16667 33.6937 0.520204C32.2986 1.34845 30.7718 1.93168 29.1798 2.2446C28.5146 1.53515 27.7109 0.969847 26.8183 0.583742C25.9257 0.197638 24.9634 -0.00104585 23.9908 4.14005e-06C20.065 4.14005e-06 16.8817 3.1824 16.8817 7.1091C16.8817 7.66575 16.9447 8.20891 17.0662 8.72956C11.1577 8.43301 5.91975 5.60251 2.41335 1.30095C1.78113 2.38593 1.44892 3.61957 1.4508 4.8753C1.44987 6.04576 1.73807 7.19832 2.2898 8.23058C2.84153 9.26284 3.63971 10.1428 4.6134 10.7924C3.48467 10.7565 2.38081 10.4516 1.39365 9.90316C1.39275 9.93286 1.39275 9.96211 1.39275 9.99271C1.39275 13.4361 3.843 16.3094 7.0947 16.9632C6.04766 17.2467 4.94987 17.2882 3.8844 17.0847C4.7889 19.9085 7.4142 21.9645 10.525 22.0221C8.00681 23.9983 4.89713 25.0702 1.69605 25.0655C1.1223 25.0655 0.55665 25.0322 0 24.966C3.2505 27.0545 7.03356 28.1631 10.8972 28.1592C23.9733 28.1592 31.1238 17.3273 31.1238 7.93395C31.1238 7.62615 31.1166 7.31881 31.1031 7.01326C32.4956 6.00791 33.6973 4.76176 34.6513 3.3336V3.3336Z" fill="currentColor"/>

</g>

<g id="footer-skype">
<path d="M33.6528 21.3035C33.9025 20.16 34.0358 18.9743 34.0358 17.7561C34.0358 8.62876 26.6368 1.22896 17.5086 1.22896C16.5456 1.22896 15.6024 1.31266 14.6831 1.47151C13.1572 0.50799 11.3891 -0.00231196 9.58455 7.87434e-06C4.2921 7.87434e-06 0 4.29031 0 9.58501C0 11.3535 0.48105 13.0091 1.31805 14.4306C1.09513 15.5252 0.982966 16.6395 0.98325 17.7566C0.98325 26.8835 8.38125 34.2828 17.5086 34.2828C18.5431 34.2828 19.5538 34.1861 20.5366 34.0061C21.9292 34.7537 23.4854 35.1441 25.0659 35.1423C30.3593 35.1423 34.6504 30.8534 34.6504 25.5587C34.652 24.0821 34.3105 22.6254 33.6528 21.3035V21.3035ZM25.9862 25.655C25.2207 26.7354 24.0907 27.5931 22.6282 28.2011C21.1779 28.805 19.4418 29.1105 17.4627 29.1105C15.0903 29.1105 13.0999 28.6911 11.5465 27.8676C10.4364 27.2664 9.52065 26.4555 8.82585 25.4529C8.1234 24.4409 7.76655 23.4356 7.76655 22.4667C7.76655 21.8624 7.99965 21.3372 8.45685 20.9075C8.90955 20.4813 9.48915 20.2644 10.1817 20.2644C10.7491 20.2644 11.2396 20.4354 11.637 20.7711C12.0172 21.0942 12.344 21.5703 12.605 22.1877C12.8984 22.8573 13.2183 23.4243 13.5554 23.8707C13.8785 24.2978 14.346 24.66 14.9418 24.9413C15.5398 25.2252 16.348 25.3697 17.3416 25.3697C18.7078 25.3697 19.8288 25.0776 20.6698 24.5012C21.4938 23.9391 21.8938 23.265 21.8938 22.4388C21.8938 21.7868 21.6841 21.2733 21.2544 20.8719C20.8053 20.4516 20.2127 20.124 19.4922 19.8999C18.7412 19.6655 17.7201 19.413 16.4592 19.1484C14.7447 18.7812 13.288 18.3456 12.1279 17.8524C10.9431 17.3484 9.9873 16.6491 9.28935 15.7748C8.58015 14.8856 8.22015 13.7714 8.22015 12.4619C8.22015 11.2136 8.59725 10.089 9.34245 9.11746C10.0818 8.15311 11.1613 7.40431 12.5496 6.89041C13.9221 6.38236 15.5538 6.12676 17.3988 6.12676C18.8748 6.12676 20.1726 6.29731 21.2553 6.63301C22.3447 6.97411 23.2628 7.42996 23.985 7.99516C24.7104 8.56306 25.2522 9.17011 25.5901 9.80056C25.9344 10.4378 26.1085 11.0727 26.1085 11.6865C26.1085 12.2769 25.8804 12.8124 25.43 13.2809C24.9773 13.7511 24.4071 13.9892 23.733 13.9892C23.121 13.9892 22.6417 13.8407 22.3096 13.5468C22 13.2732 21.6788 12.8466 21.3237 12.2333C20.9111 11.4512 20.4133 10.8338 19.8409 10.3982C19.2852 9.97606 18.3564 9.76186 17.082 9.76186C15.8958 9.76186 14.9323 9.99901 14.2182 10.4684C13.5283 10.9202 13.194 11.4377 13.194 12.0528C13.194 12.4295 13.3015 12.7436 13.5229 13.014C13.7592 13.302 14.089 13.5518 14.5089 13.7628C14.9431 13.9806 15.39 14.1548 15.8382 14.2781C16.299 14.4063 17.068 14.5953 18.126 14.8388C19.462 15.1272 20.6919 15.4481 21.7782 15.7959C22.8784 16.1483 23.8302 16.583 24.6055 17.0879C25.3975 17.6022 26.0244 18.2651 26.4703 19.0553C26.9154 19.8495 27.1409 20.8274 27.1409 21.9654C27.1409 23.3271 26.7525 24.5682 25.9862 25.655V25.655Z" fill="currentColor"/>

</g>

<g id="footer-linked">
<path d="M30.0002 0H2.39175C1.07145 0 0 1.04625 0 2.3346V30.0623C0 31.3524 1.07145 32.4 2.39175 32.4H30.0002C31.3214 32.4 32.4 31.3524 32.4 30.0623V2.3346C32.4 1.04625 31.3214 0 30.0002 0ZM9.6093 27.6093H4.8015V12.1478H9.6093V27.6093ZM7.2054 10.0337C6.83945 10.0337 6.47709 9.96154 6.13902 9.82144C5.80095 9.68135 5.4938 9.47601 5.23512 9.21716C4.97644 8.95831 4.7713 8.65103 4.63142 8.31287C4.49154 7.97471 4.41966 7.6123 4.4199 7.24635C4.4199 6.50765 4.71335 5.7992 5.23569 5.27686C5.75803 4.75452 6.46647 4.46108 7.20518 4.46108C7.94388 4.46108 8.65232 4.75452 9.17466 5.27686C9.697 5.7992 9.99045 6.50765 9.99045 7.24635C9.99045 7.9852 9.6971 8.69382 9.17486 9.21647C8.65263 9.73913 7.94425 10.0331 7.2054 10.0337V10.0337ZM27.6075 27.6093H22.8074V20.0907C22.8074 18.297 22.7723 15.9908 20.3094 15.9908C17.8083 15.9908 17.4272 17.9442 17.4272 19.9607V27.6098H12.6234V12.1478H17.2337V14.2592H17.2994C17.9411 13.0442 19.5089 11.7621 21.8471 11.7621C26.7098 11.7621 27.608 14.9634 27.608 19.1282V27.6093H27.6075Z" fill="currentColor"/>

</g>


<g id="arrow-top">

<defs>

<style>.cls-1{fill:#FF5B5B;}.cls-2{fill:#FF5B5B;}.cls-3{fill:#333333;}</style>

</defs>

<g id="Icons">

<path class="cls-1" d="M23,12A11,11,0,0,1,1,12a10.827,10.827,0,0,1,.29-2.5,11,11,0,0,1,21.42,0A10.827,10.827,0,0,1,23,12Z"/>

<ellipse class="cls-2" cx="12" cy="9.5" rx="10.71" ry="8.5"/>

</g>

<g data-name="Layer 4" id="Layer_4">

<path class="cls-3" d="M12,0A12,12,0,1,0,24,12,12.013,12.013,0,0,0,12,0Zm0,22A10,10,0,1,1,22,12,10.011,10.011,0,0,1,12,22Z"/>

<path class="cls-3" d="M12.707,5.293a1,1,0,0,0-1.414,0l-4,4a1,1,0,1,0,1.414,1.414L11,8.414V18a1,1,0,0,0,2,0V8.414l2.293,2.293a1,1,0,0,0,1.414-1.414Z"/>


</g>
</svg>
