<svg width="29" height="29" viewBox="0 0 29 29" fill="none" xmlns="http://www.w3.org/2000/svg">

<!-- logo -->
<g id="logo">
<path d="M155.85 14.0469H157.162V20.7803C157.162 21.5277 156.996 22.1497 156.663 22.6465C156.33 23.1432 155.888 23.5169 155.337 23.7676C154.79 24.0137 154.195 24.1367 153.553 24.1367C152.878 24.1367 152.268 24.0137 151.721 23.7676C151.178 23.5169 150.748 23.1432 150.429 22.6465C150.114 22.1497 149.957 21.5277 149.957 20.7803V14.0469H151.263V20.7803C151.263 21.2998 151.358 21.7282 151.55 22.0654C151.741 22.4027 152.008 22.6533 152.35 22.8174C152.696 22.9814 153.097 23.0635 153.553 23.0635C154.013 23.0635 154.414 22.9814 154.756 22.8174C155.102 22.6533 155.371 22.4027 155.562 22.0654C155.754 21.7282 155.85 21.2998 155.85 20.7803V14.0469ZM166.248 14.0469V24H164.929V14.0469H166.248ZM178.459 14.0469L174.309 24.8545H173.222L177.379 14.0469H178.459ZM191.325 14.0469H192.638V20.7803C192.638 21.5277 192.472 22.1497 192.139 22.6465C191.806 23.1432 191.364 23.5169 190.813 23.7676C190.266 24.0137 189.671 24.1367 189.029 24.1367C188.354 24.1367 187.743 24.0137 187.196 23.7676C186.654 23.5169 186.224 23.1432 185.904 22.6465C185.59 22.1497 185.433 21.5277 185.433 20.7803V14.0469H186.738V20.7803C186.738 21.2998 186.834 21.7282 187.026 22.0654C187.217 22.4027 187.484 22.6533 187.825 22.8174C188.172 22.9814 188.573 23.0635 189.029 23.0635C189.489 23.0635 189.89 22.9814 190.232 22.8174C190.578 22.6533 190.847 22.4027 191.038 22.0654C191.23 21.7282 191.325 21.2998 191.325 20.7803V14.0469ZM201.164 14.0469L203.556 17.8613L205.949 14.0469H207.487L204.342 18.9756L207.562 24H206.01L203.556 20.1104L201.102 24H199.55L202.77 18.9756L199.626 14.0469H201.164ZM226.453 24H224.374L224.388 22.9268H226.453C227.163 22.9268 227.756 22.7786 228.23 22.4824C228.704 22.1816 229.059 21.7624 229.296 21.2246C229.538 20.6823 229.659 20.0488 229.659 19.3242V18.7158C229.659 18.1462 229.59 17.6403 229.454 17.1982C229.317 16.7516 229.116 16.3757 228.852 16.0703C228.588 15.7604 228.264 15.5257 227.881 15.3662C227.503 15.2067 227.068 15.127 226.576 15.127H224.333V14.0469H226.576C227.227 14.0469 227.822 14.1562 228.36 14.375C228.898 14.5892 229.36 14.9014 229.747 15.3115C230.139 15.7171 230.44 16.2093 230.65 16.7881C230.859 17.3623 230.964 18.0094 230.964 18.7295V19.3242C230.964 20.0443 230.859 20.6937 230.65 21.2725C230.44 21.8467 230.137 22.3366 229.741 22.7422C229.349 23.1478 228.875 23.46 228.319 23.6787C227.767 23.8929 227.145 24 226.453 24ZM225.079 14.0469V24H223.759V14.0469H225.079ZM244.87 22.9268V24H239.599V22.9268H244.87ZM239.866 14.0469V24H238.547V14.0469H239.866ZM244.173 18.3262V19.3994H239.599V18.3262H244.173ZM244.802 14.0469V15.127H239.599V14.0469H244.802ZM257.408 21.4844C257.408 21.252 257.372 21.0469 257.299 20.8691C257.231 20.6868 257.108 20.5228 256.93 20.377C256.757 20.2311 256.515 20.0921 256.205 19.96C255.9 19.8278 255.513 19.6934 255.043 19.5566C254.551 19.4108 254.107 19.249 253.71 19.0713C253.314 18.889 252.974 18.6816 252.692 18.4492C252.409 18.2168 252.193 17.9502 252.042 17.6494C251.892 17.3486 251.817 17.0046 251.817 16.6172C251.817 16.2298 251.896 15.8721 252.056 15.5439C252.215 15.2158 252.443 14.931 252.739 14.6895C253.04 14.4434 253.398 14.252 253.813 14.1152C254.227 13.9785 254.69 13.9102 255.2 13.9102C255.948 13.9102 256.581 14.0537 257.101 14.3408C257.625 14.6234 258.024 14.9948 258.297 15.4551C258.571 15.9108 258.707 16.3984 258.707 16.918H257.395C257.395 16.5443 257.315 16.2139 257.155 15.9268C256.996 15.6351 256.754 15.4072 256.431 15.2432C256.107 15.0745 255.697 14.9902 255.2 14.9902C254.731 14.9902 254.344 15.0609 254.038 15.2021C253.733 15.3434 253.505 15.5348 253.355 15.7764C253.209 16.0179 253.136 16.2936 253.136 16.6035C253.136 16.8132 253.179 17.0046 253.266 17.1777C253.357 17.3464 253.496 17.5036 253.683 17.6494C253.874 17.7952 254.116 17.9297 254.407 18.0527C254.704 18.1758 255.057 18.2943 255.467 18.4082C256.032 18.5677 256.52 18.7454 256.93 18.9414C257.34 19.1374 257.677 19.3584 257.942 19.6045C258.21 19.846 258.409 20.1217 258.536 20.4316C258.668 20.737 258.735 21.0833 258.735 21.4707C258.735 21.8763 258.653 22.2432 258.488 22.5713C258.324 22.8994 258.09 23.1797 257.784 23.4121C257.479 23.6445 257.112 23.8245 256.684 23.9521C256.26 24.0752 255.786 24.1367 255.262 24.1367C254.802 24.1367 254.348 24.0729 253.902 23.9453C253.46 23.8177 253.056 23.6263 252.692 23.3711C252.332 23.1159 252.042 22.8014 251.823 22.4277C251.609 22.0495 251.502 21.612 251.502 21.1152H252.815C252.815 21.457 252.881 21.751 253.013 21.9971C253.145 22.2386 253.325 22.4391 253.553 22.5986C253.785 22.7581 254.047 22.8766 254.339 22.9541C254.635 23.027 254.943 23.0635 255.262 23.0635C255.722 23.0635 256.112 22.9997 256.431 22.8721C256.75 22.7445 256.991 22.5622 257.155 22.3252C257.324 22.0882 257.408 21.8079 257.408 21.4844ZM267.431 14.0469V24H266.112V14.0469H267.431ZM282.786 19.0439V22.6875C282.663 22.8698 282.467 23.0749 282.198 23.3027C281.929 23.526 281.558 23.722 281.084 23.8906C280.615 24.0547 280.008 24.1367 279.266 24.1367C278.66 24.1367 278.101 24.0319 277.591 23.8223C277.085 23.6081 276.645 23.2982 276.271 22.8926C275.902 22.4824 275.615 21.9857 275.41 21.4023C275.21 20.8145 275.109 20.1491 275.109 19.4062V18.6338C275.109 17.891 275.196 17.2279 275.369 16.6445C275.547 16.0612 275.807 15.5667 276.148 15.1611C276.49 14.751 276.91 14.4411 277.406 14.2314C277.903 14.0173 278.473 13.9102 279.115 13.9102C279.876 13.9102 280.512 14.0423 281.022 14.3066C281.537 14.5664 281.938 14.9264 282.226 15.3867C282.517 15.847 282.704 16.3711 282.786 16.959H281.467C281.408 16.599 281.289 16.2708 281.111 15.9746C280.938 15.6784 280.69 15.4414 280.366 15.2637C280.043 15.0814 279.626 14.9902 279.115 14.9902C278.655 14.9902 278.256 15.0745 277.919 15.2432C277.582 15.4118 277.304 15.6533 277.085 15.9678C276.866 16.2822 276.702 16.6628 276.593 17.1094C276.488 17.556 276.436 18.0596 276.436 18.6201V19.4062C276.436 19.9805 276.502 20.4932 276.634 20.9443C276.771 21.3955 276.964 21.7806 277.215 22.0996C277.465 22.4141 277.764 22.6533 278.11 22.8174C278.461 22.9814 278.849 23.0635 279.272 23.0635C279.742 23.0635 280.122 23.0247 280.414 22.9473C280.706 22.8652 280.934 22.7695 281.098 22.6602C281.262 22.5462 281.387 22.4391 281.474 22.3389V20.1104H279.17V19.0439H282.786ZM298.23 14.0469V24H296.904L291.893 16.3232V24H290.574V14.0469H291.893L296.924 21.7441V14.0469H298.23ZM312.491 22.9268V24H307.221V22.9268H312.491ZM307.487 14.0469V24H306.168V14.0469H307.487ZM311.794 18.3262V19.3994H307.221V18.3262H311.794ZM312.423 14.0469V15.127H307.221V14.0469H312.423ZM319.725 14.0469H323.02C323.767 14.0469 324.398 14.1608 324.913 14.3887C325.433 14.6165 325.827 14.9538 326.096 15.4004C326.369 15.8424 326.506 16.387 326.506 17.0342C326.506 17.4899 326.413 17.9069 326.226 18.2852C326.043 18.6589 325.779 18.9779 325.433 19.2422C325.091 19.502 324.681 19.6956 324.202 19.8232L323.833 19.9668H320.737L320.723 18.8936H323.061C323.535 18.8936 323.929 18.8115 324.243 18.6475C324.558 18.4788 324.795 18.2533 324.954 17.9707C325.114 17.6882 325.194 17.376 325.194 17.0342C325.194 16.6514 325.118 16.3164 324.968 16.0293C324.818 15.7422 324.581 15.5212 324.257 15.3662C323.938 15.2067 323.526 15.127 323.02 15.127H321.044V24H319.725V14.0469ZM325.542 24L323.122 19.4883L324.496 19.4814L326.95 23.918V24H325.542Z" fill="#FF0000"/>
<path d="M1.51758 6.09375H9.35156C10.8828 6.09375 12.2135 6.32161 13.3438 6.77734C14.474 7.23307 15.3444 7.90755 15.9551 8.80078C16.5749 9.69401 16.8848 10.7969 16.8848 12.1094C16.8848 13.2487 16.707 14.2012 16.3516 14.9668C15.9961 15.7324 15.4993 16.3659 14.8613 16.8672C14.2324 17.3594 13.4987 17.765 12.6602 18.084L11.0879 18.9727H4.51172L4.48438 15.2676H9.35156C9.96224 15.2676 10.4681 15.1582 10.8691 14.9395C11.2702 14.7207 11.571 14.4108 11.7715 14.0098C11.9811 13.5996 12.0859 13.112 12.0859 12.5469C12.0859 11.9727 11.9811 11.4805 11.7715 11.0703C11.5618 10.6602 11.252 10.3457 10.8418 10.127C10.4408 9.9082 9.94401 9.79883 9.35156 9.79883H6.31641V26H1.51758V6.09375ZM12.4141 26L8.01172 17.1953L13.0977 17.168L17.5547 25.7949V26H12.4141ZM22.4716 11.207V26H17.8505V11.207H22.4716ZM17.5771 7.39258C17.5771 6.73633 17.8141 6.19857 18.288 5.7793C18.762 5.36003 19.3772 5.15039 20.1338 5.15039C20.8903 5.15039 21.5055 5.36003 21.9795 5.7793C22.4534 6.19857 22.6904 6.73633 22.6904 7.39258C22.6904 8.04883 22.4534 8.58659 21.9795 9.00586C21.5055 9.42513 20.8903 9.63477 20.1338 9.63477C19.3772 9.63477 18.762 9.42513 18.288 9.00586C17.8141 8.58659 17.5771 8.04883 17.5771 7.39258ZM29.6034 22.7188C30.0318 22.7188 30.3964 22.6413 30.6972 22.4863C31.0071 22.3223 31.2395 22.0944 31.3945 21.8027C31.5585 21.502 31.636 21.1419 31.6269 20.7227H35.9609C35.97 21.8346 35.6965 22.8099 35.1405 23.6484C34.5937 24.4779 33.8463 25.125 32.8984 25.5898C31.9596 26.0456 30.8977 26.2734 29.7128 26.2734C28.5553 26.2734 27.5435 26.0866 26.6777 25.7129C25.8118 25.3301 25.0872 24.8014 24.5038 24.127C23.9296 23.4434 23.4967 22.6458 23.205 21.7344C22.9224 20.8229 22.7812 19.834 22.7812 18.7676V18.4531C22.7812 17.3867 22.9224 16.3978 23.205 15.4863C23.4967 14.5658 23.9296 13.7682 24.5038 13.0938C25.0872 12.4102 25.8072 11.8815 26.664 11.5078C27.5299 11.125 28.537 10.9336 29.6855 10.9336C30.9159 10.9336 32.0006 11.166 32.9394 11.6309C33.8873 12.0957 34.6301 12.7702 35.1679 13.6543C35.7057 14.5384 35.97 15.6094 35.9609 16.8672H31.6269C31.636 16.4206 31.5676 16.0195 31.4218 15.6641C31.276 15.3086 31.0481 15.026 30.7382 14.8164C30.4374 14.5977 30.0501 14.4883 29.5761 14.4883C29.1021 14.4883 28.7193 14.5931 28.4277 14.8027C28.136 15.0124 27.9127 15.304 27.7577 15.6777C27.6119 16.0423 27.5116 16.4616 27.457 16.9355C27.4114 17.4095 27.3886 17.9154 27.3886 18.4531V18.7676C27.3886 19.3145 27.4114 19.8294 27.457 20.3125C27.5116 20.7865 27.6165 21.2057 27.7714 21.5703C27.9264 21.9258 28.1497 22.2083 28.4413 22.418C28.733 22.6185 29.1204 22.7188 29.6034 22.7188ZM40.4813 5V26H35.8739V5H40.4813ZM39.9345 18.0977L38.8544 18.125C38.8544 17.0859 38.982 16.1289 39.2372 15.2539C39.4924 14.3789 39.857 13.6178 40.3309 12.9707C40.8049 12.3236 41.3746 11.8223 42.0399 11.4668C42.7053 11.1113 43.4436 10.9336 44.2548 10.9336C44.9839 10.9336 45.6493 11.0384 46.2509 11.248C46.8615 11.4577 47.3856 11.7949 47.8231 12.2598C48.2697 12.7246 48.6115 13.3307 48.8485 14.0781C49.0946 14.8255 49.2177 15.737 49.2177 16.8125V26H44.5829V16.7852C44.5829 16.1836 44.4963 15.7188 44.3231 15.3906C44.1591 15.0534 43.9221 14.821 43.6122 14.6934C43.3023 14.5566 42.924 14.4883 42.4774 14.4883C41.9397 14.4883 41.5022 14.5794 41.1649 14.7617C40.8277 14.944 40.5679 15.1992 40.3856 15.5273C40.2124 15.8464 40.094 16.2246 40.0302 16.6621C39.9664 17.0996 39.9345 17.5781 39.9345 18.0977ZM57.4979 22.2812V16.1836C57.4979 15.7643 57.4386 15.4043 57.3202 15.1035C57.2017 14.8027 57.0148 14.5703 56.7596 14.4062C56.5044 14.2331 56.1626 14.1465 55.7342 14.1465C55.3879 14.1465 55.0916 14.2057 54.8455 14.3242C54.5995 14.4427 54.4126 14.6204 54.285 14.8574C54.1574 15.0944 54.0936 15.3952 54.0936 15.7598H49.4862C49.4862 15.0762 49.6366 14.4427 49.9373 13.8594C50.2472 13.2669 50.6847 12.752 51.2498 12.3145C51.8241 11.877 52.5077 11.5397 53.3006 11.3027C54.1027 11.0566 54.9959 10.9336 55.9803 10.9336C57.1561 10.9336 58.2043 11.1296 59.1248 11.5215C60.0545 11.9134 60.7883 12.5013 61.326 13.2852C61.8638 14.0599 62.1327 15.0352 62.1327 16.2109V22.2676C62.1327 23.2337 62.1873 23.9674 62.2967 24.4688C62.4061 24.9609 62.561 25.3939 62.7616 25.7676V26H58.1405C57.9217 25.5443 57.7577 24.9883 57.6483 24.332C57.548 23.6667 57.4979 22.9831 57.4979 22.2812ZM58.0584 16.9629L58.0858 19.4238H56.0487C55.6203 19.4238 55.2557 19.4831 54.9549 19.6016C54.6633 19.7201 54.4263 19.8841 54.244 20.0938C54.0708 20.2943 53.9432 20.5221 53.8612 20.7773C53.7883 21.0326 53.7518 21.3014 53.7518 21.584C53.7518 21.8574 53.8156 22.1035 53.9432 22.3223C54.0799 22.5319 54.2622 22.696 54.4901 22.8145C54.7179 22.9329 54.9732 22.9922 55.2557 22.9922C55.7661 22.9922 56.1991 22.8965 56.5545 22.7051C56.9191 22.5046 57.1971 22.263 57.3885 21.9805C57.5799 21.6979 57.6756 21.4336 57.6756 21.1875L58.6873 23.0742C58.5051 23.4388 58.2954 23.8079 58.0584 24.1816C57.8306 24.5553 57.5435 24.9017 57.1971 25.2207C56.8599 25.5306 56.4452 25.7858 55.953 25.9863C55.4608 26.1777 54.8638 26.2734 54.162 26.2734C53.2505 26.2734 52.412 26.0866 51.6463 25.7129C50.8898 25.3392 50.2837 24.8197 49.828 24.1543C49.3722 23.4798 49.1444 22.7051 49.1444 21.8301C49.1444 21.0645 49.2811 20.3809 49.5545 19.7793C49.8371 19.1777 50.2609 18.6673 50.826 18.248C51.3911 17.8288 52.1112 17.5098 52.9862 17.291C53.8612 17.0723 54.8911 16.9629 56.076 16.9629H58.0584ZM67.3777 14.8711V26H62.7703V11.207H67.077L67.3777 14.8711ZM71.7527 11.0977L71.6707 15.377C71.4884 15.3587 71.2423 15.3359 70.9324 15.3086C70.6225 15.2812 70.3628 15.2676 70.1531 15.2676C69.6154 15.2676 69.1505 15.3314 68.7586 15.459C68.3758 15.5775 68.0568 15.7598 67.8016 16.0059C67.5555 16.2428 67.3732 16.5436 67.2547 16.9082C67.1453 17.2728 67.0952 17.6966 67.1043 18.1797L66.2703 17.6328C66.2703 16.6393 66.366 15.737 66.5574 14.9258C66.7579 14.1055 67.0405 13.3991 67.4051 12.8066C67.7697 12.2051 68.2117 11.7448 68.7313 11.4258C69.2508 11.0977 69.8341 10.9336 70.4813 10.9336C70.7091 10.9336 70.9324 10.9473 71.1512 10.9746C71.379 11.002 71.5796 11.043 71.7527 11.0977ZM79.6091 22.6094V5H84.2439V26H80.0877L79.6091 22.6094ZM70.531 18.7812V18.4941C70.531 17.373 70.6541 16.3522 70.9002 15.4316C71.1462 14.502 71.5108 13.7044 71.9939 13.0391C72.477 12.3646 73.0785 11.8451 73.7986 11.4805C74.5186 11.1159 75.3481 10.9336 76.2869 10.9336C77.1254 10.9336 77.8591 11.1296 78.488 11.5215C79.117 11.9043 79.6547 12.4421 80.1013 13.1348C80.5479 13.8275 80.9125 14.6387 81.1951 15.5684C81.4776 16.4889 81.6918 17.4824 81.8377 18.5488V18.8906C81.6918 19.8932 81.4776 20.8411 81.1951 21.7344C80.9125 22.6185 80.5479 23.4023 80.1013 24.0859C79.6547 24.7695 79.1124 25.3073 78.4744 25.6992C77.8455 26.082 77.1072 26.2734 76.2595 26.2734C75.3207 26.2734 74.4913 26.0866 73.7712 25.7129C73.0603 25.3392 72.4633 24.8151 71.9802 24.1406C71.5063 23.4661 71.1462 22.6732 70.9002 21.7617C70.6541 20.8503 70.531 19.8568 70.531 18.7812ZM75.1384 18.4941V18.7812C75.1384 19.3372 75.1749 19.8522 75.2478 20.3262C75.3207 20.8001 75.4438 21.2194 75.617 21.584C75.7992 21.9395 76.0362 22.2174 76.3279 22.418C76.6287 22.6185 76.9978 22.7188 77.4353 22.7188C78.0278 22.7188 78.5154 22.5775 78.8982 22.2949C79.2901 22.0124 79.5772 21.6113 79.7595 21.0918C79.9509 20.5723 80.033 19.9616 80.0056 19.2598V18.1797C80.0239 17.5781 79.9828 17.0495 79.8826 16.5938C79.7823 16.1289 79.6228 15.7415 79.4041 15.4316C79.1944 15.1217 78.9255 14.8893 78.5974 14.7344C78.2784 14.5703 77.9002 14.4883 77.4627 14.4883C77.0343 14.4883 76.6697 14.5885 76.3689 14.7891C76.0772 14.9896 75.8403 15.2721 75.658 15.6367C75.4757 15.9922 75.3435 16.416 75.2615 16.9082C75.1795 17.3913 75.1384 17.9199 75.1384 18.4941ZM92.5055 6.09375H96.4157L100.859 19.9434L105.302 6.09375H109.213L102.445 26H99.2731L92.5055 6.09375ZM90.1266 6.09375H94.1735L94.9255 21.3516V26H90.1266V6.09375ZM107.545 6.09375H111.605V26H106.793V21.3516L107.545 6.09375ZM120.186 22.2812V16.1836C120.186 15.7643 120.127 15.4043 120.008 15.1035C119.89 14.8027 119.703 14.5703 119.448 14.4062C119.193 14.2331 118.851 14.1465 118.423 14.1465C118.076 14.1465 117.78 14.2057 117.534 14.3242C117.288 14.4427 117.101 14.6204 116.973 14.8574C116.846 15.0944 116.782 15.3952 116.782 15.7598H112.174C112.174 15.0762 112.325 14.4427 112.626 13.8594C112.936 13.2669 113.373 12.752 113.938 12.3145C114.512 11.877 115.196 11.5397 115.989 11.3027C116.791 11.0566 117.684 10.9336 118.669 10.9336C119.844 10.9336 120.893 11.1296 121.813 11.5215C122.743 11.9134 123.477 12.5013 124.014 13.2852C124.552 14.0599 124.821 15.0352 124.821 16.2109V22.2676C124.821 23.2337 124.876 23.9674 124.985 24.4688C125.094 24.9609 125.249 25.3939 125.45 25.7676V26H120.829C120.61 25.5443 120.446 24.9883 120.337 24.332C120.236 23.6667 120.186 22.9831 120.186 22.2812ZM120.747 16.9629L120.774 19.4238H118.737C118.309 19.4238 117.944 19.4831 117.643 19.6016C117.352 19.7201 117.115 19.8841 116.932 20.0938C116.759 20.2943 116.631 20.5221 116.549 20.7773C116.477 21.0326 116.44 21.3014 116.44 21.584C116.44 21.8574 116.504 22.1035 116.631 22.3223C116.768 22.5319 116.95 22.696 117.178 22.8145C117.406 22.9329 117.661 22.9922 117.944 22.9922C118.454 22.9922 118.887 22.8965 119.243 22.7051C119.607 22.5046 119.885 22.263 120.077 21.9805C120.268 21.6979 120.364 21.4336 120.364 21.1875L121.376 23.0742C121.193 23.4388 120.984 23.8079 120.747 24.1816C120.519 24.5553 120.232 24.9017 119.885 25.2207C119.548 25.5306 119.133 25.7858 118.641 25.9863C118.149 26.1777 117.552 26.2734 116.85 26.2734C115.939 26.2734 115.1 26.0866 114.335 25.7129C113.578 25.3392 112.972 24.8197 112.516 24.1543C112.061 23.4798 111.833 22.7051 111.833 21.8301C111.833 21.0645 111.969 20.3809 112.243 19.7793C112.525 19.1777 112.949 18.6673 113.514 18.248C114.079 17.8288 114.799 17.5098 115.674 17.291C116.549 17.0723 117.579 16.9629 118.764 16.9629H120.747ZM129.328 11.207L131.406 15.2812L133.552 11.207H138.338L134.455 18.4121L138.543 26H133.716L131.406 21.625L129.109 26H124.283L128.371 18.4121L124.502 11.207H129.328Z" fill="#FF0000"/>

</g>
<!-- socials -->
<g id="facebook"><path d="M12.0558 4.70338H14.7192V0.198376C13.4296 0.0642841 12.134 -0.00191857 10.8375 4.23075e-05C6.98417 4.23075e-05 4.34917 2.35171 4.34917 6.65838V10.37H0V15.4134H4.34917V28.3334H9.5625V15.4134H13.8975L14.5492 10.37H9.5625V7.15421C9.5625 5.66671 9.95917 4.70338 12.0558 4.70338Z" fill="white"/>
</g>
<g id="insta">
<path d="M21.7317 4.90167C21.3954 4.90167 21.0668 5.00137 20.7872 5.18817C20.5076 5.37497 20.2897 5.64047 20.1611 5.95111C20.0324 6.26174 19.9987 6.60355 20.0643 6.93332C20.1299 7.26309 20.2918 7.566 20.5296 7.80375C20.7673 8.0415 21.0702 8.20341 21.4 8.269C21.7298 8.3346 22.0716 8.30093 22.3822 8.17226C22.6929 8.04359 22.9584 7.8257 23.1452 7.54614C23.332 7.26657 23.4317 6.9379 23.4317 6.60167C23.4317 6.1508 23.2526 5.7184 22.9338 5.39959C22.6149 5.08077 22.1825 4.90167 21.7317 4.90167ZM28.2483 8.33C28.2208 7.15459 28.0006 5.99165 27.5967 4.8875C27.2365 3.94277 26.6758 3.08731 25.9533 2.38C25.2518 1.65385 24.3944 1.09675 23.4458 0.750833C22.3446 0.334561 21.1804 0.109381 20.0033 0.0849999C18.5017 -7.91624e-08 18.02 0 14.1667 0C10.3133 0 9.83167 -7.91624e-08 8.33 0.0849999C7.15297 0.109381 5.98874 0.334561 4.8875 0.750833C3.94071 1.10025 3.08399 1.65688 2.38 2.38C1.65385 3.0815 1.09675 3.93896 0.750833 4.8875C0.334561 5.98874 0.109381 7.15297 0.0849999 8.33C-7.91624e-08 9.83167 0 10.3133 0 14.1667C0 18.02 -7.91624e-08 18.5017 0.0849999 20.0033C0.109381 21.1804 0.334561 22.3446 0.750833 23.4458C1.09675 24.3944 1.65385 25.2518 2.38 25.9533C3.08399 26.6765 3.94071 27.2331 4.8875 27.5825C5.98874 27.9988 7.15297 28.224 8.33 28.2483C9.83167 28.3333 10.3133 28.3333 14.1667 28.3333C18.02 28.3333 18.5017 28.3333 20.0033 28.2483C21.1804 28.224 22.3446 27.9988 23.4458 27.5825C24.3944 27.2366 25.2518 26.6795 25.9533 25.9533C26.679 25.2487 27.2401 24.3924 27.5967 23.4458C28.0006 22.3417 28.2208 21.1787 28.2483 20.0033C28.2483 18.5017 28.3333 18.02 28.3333 14.1667C28.3333 10.3133 28.3333 9.83167 28.2483 8.33ZM25.6983 19.8333C25.688 20.7326 25.5252 21.6236 25.2167 22.4683C24.9905 23.0849 24.6272 23.6419 24.1542 24.0975C23.6947 24.5657 23.1387 24.9283 22.525 25.16C21.6802 25.4685 20.7893 25.6314 19.89 25.6417C18.4733 25.7125 17.9492 25.7267 14.2233 25.7267C10.4975 25.7267 9.97333 25.7267 8.55667 25.6417C7.62293 25.6592 6.69318 25.5154 5.80833 25.2167C5.22152 24.9731 4.69109 24.6114 4.25 24.1542C3.77979 23.6991 3.42103 23.1415 3.20167 22.525C2.8558 21.6681 2.66396 20.7569 2.635 19.8333C2.635 18.4167 2.55 17.8925 2.55 14.1667C2.55 10.4408 2.55 9.91667 2.635 8.5C2.64135 7.58066 2.80918 6.66959 3.13083 5.80833C3.38023 5.21037 3.76304 4.67735 4.25 4.25C4.6804 3.76291 5.21232 3.37605 5.80833 3.11667C6.67186 2.80506 7.582 2.6422 8.5 2.635C9.91667 2.635 10.4408 2.55 14.1667 2.55C17.8925 2.55 18.4167 2.55 19.8333 2.635C20.7326 2.64531 21.6236 2.80818 22.4683 3.11667C23.1121 3.35559 23.6899 3.74403 24.1542 4.25C24.6184 4.68517 24.9812 5.21721 25.2167 5.80833C25.5315 6.67099 25.6945 7.58169 25.6983 8.5C25.7692 9.91667 25.7833 10.4408 25.7833 14.1667C25.7833 17.8925 25.7692 18.4167 25.6983 19.8333ZM14.1667 6.89917C12.7299 6.90197 11.3262 7.33058 10.1329 8.13084C8.93966 8.93111 8.01037 10.0671 7.46248 11.3953C6.91459 12.7235 6.77269 14.1843 7.05471 15.5932C7.33672 17.002 8.03 18.2956 9.04694 19.3106C10.0639 20.3255 11.3588 21.0163 12.7682 21.2955C14.1776 21.5748 15.6381 21.4301 16.9652 20.8796C18.2924 20.3291 19.4266 19.3976 20.2245 18.2028C21.0225 17.008 21.4483 15.6034 21.4483 14.1667C21.4502 13.2106 21.263 12.2635 20.8976 11.38C20.5321 10.4965 19.9956 9.69398 19.3189 9.01857C18.6422 8.34316 17.8386 7.80821 16.9544 7.44448C16.0702 7.08076 15.1228 6.89543 14.1667 6.89917ZM14.1667 18.8842C13.2336 18.8842 12.3216 18.6075 11.5458 18.0891C10.77 17.5708 10.1653 16.834 9.80827 15.972C9.45121 15.11 9.35779 14.1614 9.53981 13.2463C9.72184 12.3312 10.1711 11.4906 10.8309 10.8309C11.4906 10.1711 12.3312 9.72184 13.2463 9.53981C14.1614 9.35779 15.11 9.45121 15.972 9.80827C16.834 10.1653 17.5708 10.77 18.0891 11.5458C18.6075 12.3216 18.8842 13.2336 18.8842 14.1667C18.8842 14.7862 18.7621 15.3996 18.5251 15.972C18.288 16.5443 17.9405 17.0644 17.5024 17.5024C17.0644 17.9405 16.5443 18.288 15.972 18.5251C15.3996 18.7621 14.7862 18.8842 14.1667 18.8842Z" fill="white"/>
</g>

<g id="twitter">
<path d="M31.1658 1.85305C31.1658 1.603 31.0996 1.35742 30.9739 1.14125C30.8482 0.925085 30.6676 0.746033 30.4503 0.622284C30.233 0.498536 29.9868 0.434501 29.7368 0.436685C29.4868 0.438868 29.2418 0.507193 29.0267 0.634717C28.1971 1.12887 27.3039 1.50731 26.3718 1.75955C25.0415 0.618106 23.3449 -0.00645189 21.592 5.0262e-05C19.6692 0.00235451 17.8226 0.751779 16.442 2.09009C15.0614 3.4284 14.2549 5.25084 14.1928 7.17263C10.4015 6.56818 6.96531 4.58938 4.53959 1.61363C4.39342 1.43651 4.20685 1.29709 3.99557 1.2071C3.78429 1.11712 3.55449 1.0792 3.3255 1.09655C3.09657 1.1155 2.87569 1.18989 2.68193 1.3133C2.48818 1.43671 2.32738 1.60543 2.21342 1.80488C1.62907 2.82474 1.29349 3.96803 1.23392 5.14192C1.17436 6.31581 1.39248 7.4872 1.87058 8.56097L1.86775 8.56238C1.6524 8.69471 1.47467 8.88017 1.35162 9.10096C1.22858 9.32175 1.16434 9.57046 1.16508 9.82322C1.16281 10.0312 1.1756 10.239 1.20333 10.4451C1.34801 12.2274 2.13782 13.8956 3.42467 15.1371C3.33735 15.3036 3.2841 15.4858 3.26804 15.6731C3.25199 15.8604 3.27345 16.0491 3.33117 16.228C3.89214 17.9764 5.08537 19.4525 6.67734 20.3675C5.05974 20.9928 3.31317 21.2108 1.5915 21.0021C1.273 20.9625 0.950478 21.0322 0.676772 21.1999C0.403065 21.3675 0.194394 21.6231 0.0849324 21.9248C-0.0245287 22.2265 -0.0282907 22.5565 0.0742624 22.8606C0.176816 23.1648 0.379605 23.4251 0.649418 23.5989C3.61055 25.5058 7.05825 26.5194 10.5803 26.5186C14.5742 26.5636 18.471 25.2874 21.6646 22.8886C24.8582 20.4897 27.1695 17.1027 28.239 13.2544C28.739 11.5781 28.9943 9.83845 28.9969 8.08922L28.9955 7.80588C29.7352 7.00802 30.3082 6.07051 30.6809 5.04831C31.0536 4.02611 31.2185 2.93979 31.1658 1.85305ZM26.4823 6.40338C26.2481 6.67994 26.1294 7.03609 26.1508 7.39788C26.165 7.63163 26.1636 7.8668 26.1636 8.08922C26.1606 9.56706 25.944 11.0367 25.5204 12.4525C24.6473 15.7273 22.7004 18.6144 19.9916 20.6513C17.2827 22.6881 13.9687 23.757 10.5803 23.6867C9.36352 23.6869 8.151 23.5438 6.96775 23.2603C8.47694 22.7736 9.88801 22.0235 11.1356 21.0446C11.3656 20.8638 11.534 20.6161 11.6176 20.3356C11.7012 20.0552 11.6959 19.7558 11.6025 19.4785C11.509 19.2011 11.3319 18.9596 11.0956 18.787C10.8593 18.6144 10.5754 18.5192 10.2828 18.5145C9.10511 18.496 7.98062 18.0212 7.14625 17.1899C7.35781 17.1502 7.56795 17.1006 7.77667 17.0411C8.0827 16.9541 8.35055 16.7666 8.53705 16.5089C8.72355 16.2511 8.81785 15.9381 8.80476 15.6202C8.79167 15.3023 8.67195 14.9981 8.46489 14.7565C8.25783 14.5149 7.97549 14.3501 7.66334 14.2885C6.97978 14.1535 6.33658 13.8627 5.78374 13.4386C5.23091 13.0145 4.78334 12.4686 4.47584 11.8434C4.7319 11.8784 4.98961 11.9001 5.24792 11.9086C5.55488 11.9136 5.85548 11.8208 6.10613 11.6435C6.35677 11.4662 6.54444 11.2137 6.64192 10.9226C6.73549 10.629 6.73079 10.3129 6.62853 10.0222C6.52627 9.73154 6.33203 9.48213 6.07525 9.3118C5.45183 8.89681 4.94108 8.33365 4.58876 7.67278C4.23644 7.01191 4.05356 6.27396 4.0565 5.52505C4.0565 5.43155 4.05934 5.33663 4.065 5.24455C7.24041 8.20628 11.3593 9.95216 15.6958 10.1746C15.9148 10.1829 16.1328 10.1413 16.3333 10.0529C16.5338 9.96455 16.7116 9.83175 16.8533 9.66455C16.9935 9.49632 17.0929 9.29785 17.1435 9.08473C17.1942 8.87161 17.1947 8.64966 17.1451 8.4363C17.064 8.09801 17.0226 7.75142 17.0218 7.40355C17.0233 6.19193 17.5053 5.03036 18.3621 4.17361C19.2188 3.31686 20.3804 2.83488 21.592 2.83338C22.2155 2.83154 22.8327 2.959 23.4045 3.20771C23.9763 3.45643 24.4903 3.82099 24.9141 4.27838C25.0775 4.45422 25.2832 4.58533 25.5115 4.65922C25.7399 4.73312 25.9834 4.74734 26.2188 4.70055C26.8008 4.58743 27.3745 4.43502 27.9358 4.24438C27.5531 5.02755 27.0639 5.75408 26.4823 6.40338Z" fill="white"/>
</g>

<g id="skype">
<path d="M20.03 15.3167C19.4623 14.9522 18.8461 14.6694 18.1996 14.4766C17.803 14.3562 17.3638 14.2386 16.9105 14.1267C16.5138 14.0162 16.0435 13.9029 15.4626 13.7754C14.7695 13.6301 14.0892 13.4292 13.4283 13.1747C13.0877 13.0424 12.7871 12.8242 12.5556 12.5415C12.3863 12.3101 12.3058 12.0254 12.329 11.7396C12.3284 11.4332 12.4307 11.1354 12.6194 10.8939C12.8835 10.5846 13.226 10.3521 13.611 10.221C14.2586 9.99844 14.9411 9.89477 15.6255 9.91495C16.1552 9.90617 16.6832 9.97587 17.1924 10.1218C17.5301 10.2168 17.8481 10.3713 18.1316 10.578C18.3149 10.7088 18.4713 10.8738 18.592 11.0639C18.6795 11.229 18.7988 11.3751 18.943 11.4939C19.0871 11.6127 19.2534 11.7019 19.4322 11.7561C19.6109 11.8104 19.7987 11.8288 19.9846 11.8103C20.1705 11.7917 20.3509 11.7366 20.5154 11.648C20.6799 11.5595 20.8252 11.4392 20.9431 11.2943C21.0609 11.1493 21.149 10.9825 21.2021 10.8033C21.2552 10.6242 21.2723 10.4364 21.2526 10.2506C21.2328 10.0648 21.1764 9.88479 21.0868 9.72087C20.7881 9.19248 20.3846 8.73066 19.901 8.3637C19.3424 7.93455 18.7087 7.61316 18.0325 7.41596C17.2518 7.18531 16.441 7.07262 15.627 7.08162C14.5922 7.05935 13.5622 7.22742 12.5882 7.57745C11.7074 7.89811 10.9336 8.45845 10.3541 9.19529C9.79911 9.92796 9.49864 10.8219 9.49846 11.741C9.47547 12.6561 9.76532 13.5516 10.3201 14.2797C10.8557 14.9543 11.5579 15.4777 12.3573 15.7984C12.9614 16.0308 13.5798 16.2239 14.2089 16.3764C14.2202 16.3806 14.2287 16.3905 14.24 16.3934C14.512 16.4755 14.9455 16.5846 15.5717 16.7192C15.8168 16.773 16.0463 16.8311 16.2758 16.8892C16.2985 16.8949 16.331 16.902 16.3523 16.909L16.3778 16.9119C16.7291 17.0025 17.0677 17.0946 17.378 17.1895C17.7591 17.3011 18.1229 17.4651 18.4589 17.6769C18.6684 17.8085 18.8444 17.9869 18.9731 18.1982C19.0977 18.456 19.1552 18.741 19.1403 19.027C19.1599 19.397 19.053 19.7627 18.8371 20.064C18.5456 20.4433 18.1512 20.731 17.701 20.8927C17.0298 21.1517 16.3134 21.2731 15.5944 21.2497C14.7628 21.2817 13.9357 21.1146 13.1818 20.7624C12.8336 20.5769 12.5344 20.3113 12.3091 19.9875C12.151 19.7802 12.0521 19.5339 12.023 19.2749C12.023 18.8991 11.8737 18.5388 11.608 18.2731C11.3423 18.0075 10.982 17.8582 10.6063 17.8582C10.2306 17.8582 9.87023 18.0075 9.60456 18.2731C9.33888 18.5388 9.18962 18.8991 9.18962 19.2749C9.21297 20.1108 9.48744 20.9204 9.97729 21.5982C10.4668 22.3032 11.1189 22.88 11.8785 23.2798C13.0341 23.8436 14.309 24.1192 15.5944 24.083C16.6866 24.1095 17.7728 23.9143 18.7875 23.5093C19.7308 23.1473 20.5497 22.5212 21.1463 21.7059C21.7134 20.9115 22.0041 19.9529 21.9736 18.9774C21.9868 18.2211 21.8037 17.4743 21.4424 16.8099C21.0934 16.21 20.6099 15.6994 20.03 15.3181V15.3167ZM30.2597 17.9772C30.6417 15.649 30.4638 13.2634 29.741 11.0175C29.0181 8.77171 27.771 6.73023 26.1027 5.06196C24.4344 3.39368 22.393 2.14654 20.1471 1.42368C17.9013 0.700819 15.5156 0.523009 13.1875 0.904956C11.4685 0.0807667 9.53607 -0.189516 7.65694 0.131415C5.77781 0.452347 4.04464 1.34867 2.69665 2.69665C1.34867 4.04464 0.452347 5.77781 0.131415 7.65694C-0.189516 9.53607 0.0807667 11.4685 0.904956 13.1875C0.523325 15.5154 0.701319 17.9007 1.42422 20.1462C2.14712 22.3918 3.39416 24.4329 5.06224 26.101C6.73031 27.7691 8.77149 29.0161 11.017 29.739C13.2625 30.4619 15.6479 30.6399 17.9758 30.2583C19.6948 31.0825 21.6272 31.3528 23.5063 31.0318C25.3854 30.7109 27.1186 29.8146 28.4666 28.4666C29.8146 27.1186 30.7109 25.3854 31.0318 23.5063C31.3528 21.6272 31.0825 19.6948 30.2583 17.9758L30.2597 17.9772ZM21.9566 28.3316C20.8817 28.3312 19.8243 28.0592 18.8825 27.5411C18.5903 27.3801 18.2508 27.327 17.9234 27.391C16.1774 27.7392 14.376 27.6956 12.6489 27.2632C10.9219 26.8309 9.3123 26.0207 7.93633 24.8909C6.56035 23.7612 5.45227 22.3402 4.69201 20.7303C3.93175 19.1205 3.53827 17.362 3.53996 15.5816C3.54141 14.7949 3.61922 14.0102 3.77229 13.2385C3.83638 12.911 3.78322 12.5715 3.62212 12.2794C2.95693 11.0695 2.70249 9.67644 2.89705 8.30957C3.09161 6.94271 3.72465 5.67594 4.701 4.69976C5.67734 3.72357 6.94421 3.09073 8.31111 2.8964C9.67801 2.70206 11.0711 2.95674 12.2808 3.62212C12.5732 3.7839 12.9134 3.83709 13.2413 3.77229C14.9871 3.4243 16.7885 3.4681 18.5153 3.90054C20.2422 4.33298 21.8516 5.14326 23.2274 6.27297C24.6032 7.40267 25.7111 8.82362 26.4713 10.4333C27.2315 12.0431 27.6249 13.8014 27.6233 15.5816C27.6218 16.3684 27.544 17.1531 27.391 17.9248C27.3269 18.2522 27.38 18.5917 27.5411 18.8839C28.0755 19.8544 28.3477 20.9475 28.3308 22.0553C28.3139 23.1632 28.0085 24.2474 27.4447 25.2012C26.8809 26.155 26.0782 26.9453 25.1158 27.4943C24.1534 28.0433 23.0646 28.3318 21.9566 28.3316Z" fill="white"/>
</g>
<g id="linked"><path d="M20.03 15.3167C19.4623 14.9522 18.8461 14.6694 18.1996 14.4766C17.803 14.3562 17.3638 14.2386 16.9105 14.1267C16.5138 14.0162 16.0435 13.9029 15.4626 13.7754C14.7695 13.6301 14.0892 13.4292 13.4283 13.1747C13.0877 13.0424 12.7871 12.8242 12.5556 12.5415C12.3863 12.3101 12.3058 12.0254 12.329 11.7396C12.3284 11.4332 12.4307 11.1354 12.6194 10.8939C12.8835 10.5846 13.226 10.3521 13.611 10.221C14.2586 9.99844 14.9411 9.89477 15.6255 9.91495C16.1552 9.90617 16.6832 9.97587 17.1924 10.1218C17.5301 10.2168 17.8481 10.3713 18.1316 10.578C18.3149 10.7088 18.4713 10.8738 18.592 11.0639C18.6795 11.229 18.7988 11.3751 18.943 11.4939C19.0871 11.6127 19.2534 11.7019 19.4322 11.7561C19.6109 11.8104 19.7987 11.8288 19.9846 11.8103C20.1705 11.7917 20.3509 11.7366 20.5154 11.648C20.6799 11.5595 20.8252 11.4392 20.9431 11.2943C21.0609 11.1493 21.149 10.9825 21.2021 10.8033C21.2552 10.6242 21.2723 10.4364 21.2526 10.2506C21.2328 10.0648 21.1764 9.88479 21.0868 9.72087C20.7881 9.19248 20.3846 8.73066 19.901 8.3637C19.3424 7.93455 18.7087 7.61316 18.0325 7.41596C17.2518 7.18531 16.441 7.07262 15.627 7.08162C14.5922 7.05935 13.5622 7.22742 12.5882 7.57745C11.7074 7.89811 10.9336 8.45845 10.3541 9.19529C9.79911 9.92796 9.49864 10.8219 9.49846 11.741C9.47547 12.6561 9.76532 13.5516 10.3201 14.2797C10.8557 14.9543 11.5579 15.4777 12.3573 15.7984C12.9614 16.0308 13.5798 16.2239 14.2089 16.3764C14.2202 16.3806 14.2287 16.3905 14.24 16.3934C14.512 16.4755 14.9455 16.5846 15.5717 16.7192C15.8168 16.773 16.0463 16.8311 16.2758 16.8892C16.2985 16.8949 16.331 16.902 16.3523 16.909L16.3778 16.9119C16.7291 17.0025 17.0677 17.0946 17.378 17.1895C17.7591 17.3011 18.1229 17.4651 18.4589 17.6769C18.6684 17.8085 18.8444 17.9869 18.9731 18.1982C19.0977 18.456 19.1552 18.741 19.1403 19.027C19.1599 19.397 19.053 19.7627 18.8371 20.064C18.5456 20.4433 18.1512 20.731 17.701 20.8927C17.0298 21.1517 16.3134 21.2731 15.5944 21.2497C14.7628 21.2817 13.9357 21.1146 13.1818 20.7624C12.8336 20.5769 12.5344 20.3113 12.3091 19.9875C12.151 19.7802 12.0521 19.5339 12.023 19.2749C12.023 18.8991 11.8737 18.5388 11.608 18.2731C11.3423 18.0075 10.982 17.8582 10.6063 17.8582C10.2306 17.8582 9.87023 18.0075 9.60456 18.2731C9.33888 18.5388 9.18962 18.8991 9.18962 19.2749C9.21297 20.1108 9.48744 20.9204 9.97729 21.5982C10.4668 22.3032 11.1189 22.88 11.8785 23.2798C13.0341 23.8436 14.309 24.1192 15.5944 24.083C16.6866 24.1095 17.7728 23.9143 18.7875 23.5093C19.7308 23.1473 20.5497 22.5212 21.1463 21.7059C21.7134 20.9115 22.0041 19.9529 21.9736 18.9774C21.9868 18.2211 21.8037 17.4743 21.4424 16.8099C21.0934 16.21 20.6099 15.6994 20.03 15.3181V15.3167ZM30.2597 17.9772C30.6417 15.649 30.4638 13.2634 29.741 11.0175C29.0181 8.77171 27.771 6.73023 26.1027 5.06196C24.4344 3.39368 22.393 2.14654 20.1471 1.42368C17.9013 0.700819 15.5156 0.523009 13.1875 0.904956C11.4685 0.0807667 9.53607 -0.189516 7.65694 0.131415C5.77781 0.452347 4.04464 1.34867 2.69665 2.69665C1.34867 4.04464 0.452347 5.77781 0.131415 7.65694C-0.189516 9.53607 0.0807667 11.4685 0.904956 13.1875C0.523325 15.5154 0.701319 17.9007 1.42422 20.1462C2.14712 22.3918 3.39416 24.4329 5.06224 26.101C6.73031 27.7691 8.77149 29.0161 11.017 29.739C13.2625 30.4619 15.6479 30.6399 17.9758 30.2583C19.6948 31.0825 21.6272 31.3528 23.5063 31.0318C25.3854 30.7109 27.1186 29.8146 28.4666 28.4666C29.8146 27.1186 30.7109 25.3854 31.0318 23.5063C31.3528 21.6272 31.0825 19.6948 30.2583 17.9758L30.2597 17.9772ZM21.9566 28.3316C20.8817 28.3312 19.8243 28.0592 18.8825 27.5411C18.5903 27.3801 18.2508 27.327 17.9234 27.391C16.1774 27.7392 14.376 27.6956 12.6489 27.2632C10.9219 26.8309 9.3123 26.0207 7.93633 24.8909C6.56035 23.7612 5.45227 22.3402 4.69201 20.7303C3.93175 19.1205 3.53827 17.362 3.53996 15.5816C3.54141 14.7949 3.61922 14.0102 3.77229 13.2385C3.83638 12.911 3.78322 12.5715 3.62212 12.2794C2.95693 11.0695 2.70249 9.67644 2.89705 8.30957C3.09161 6.94271 3.72465 5.67594 4.701 4.69976C5.67734 3.72357 6.94421 3.09073 8.31111 2.8964C9.67801 2.70206 11.0711 2.95674 12.2808 3.62212C12.5732 3.7839 12.9134 3.83709 13.2413 3.77229C14.9871 3.4243 16.7885 3.4681 18.5153 3.90054C20.2422 4.33298 21.8516 5.14326 23.2274 6.27297C24.6032 7.40267 25.7111 8.82362 26.4713 10.4333C27.2315 12.0431 27.6249 13.8014 27.6233 15.5816C27.6218 16.3684 27.544 17.1531 27.391 17.9248C27.3269 18.2522 27.38 18.5917 27.5411 18.8839C28.0755 19.8544 28.3477 20.9475 28.3308 22.0553C28.3139 23.1632 28.0085 24.2474 27.4447 25.2012C26.8809 26.155 26.0782 26.9453 25.1158 27.4943C24.1534 28.0433 23.0646 28.3318 21.9566 28.3316Z" fill="white"/>
</g>
<g id="dribbble">
<path d="M14.1667 0C11.3648 0 8.62579 0.83086 6.29609 2.38751C3.9664 3.94417 2.15062 6.1567 1.07838 8.74532C0.00613819 11.3339 -0.274409 14.1824 0.272215 16.9304C0.818839 19.6785 2.16808 22.2028 4.14933 24.184C6.13057 26.1653 8.65483 27.5145 11.4029 28.0611C14.151 28.6077 16.9994 28.3272 19.588 27.255C22.1766 26.1827 24.3892 24.3669 25.9458 22.0372C27.5025 19.7075 28.3333 16.9686 28.3333 14.1667C28.3333 12.3063 27.9669 10.4641 27.255 8.74532C26.543 7.02654 25.4995 5.46482 24.184 4.14932C22.8685 2.83382 21.3068 1.79031 19.588 1.07837C17.8692 0.366432 16.0271 0 14.1667 0ZM14.1667 2.83333C17.0775 2.83217 19.8755 3.95949 21.9725 5.97833C19.8079 7.24795 17.5141 8.28324 15.13 9.06667C13.9435 7.02217 12.5832 5.08362 11.0642 3.2725C12.0728 2.98208 13.1171 2.83426 14.1667 2.83333ZM8.34417 4.4625C9.82839 6.16038 11.1605 7.98546 12.325 9.91667C9.54423 10.6072 6.69022 10.9592 3.82501 10.965H3.31501C4.11854 8.24449 5.91308 5.92423 8.34417 4.4625ZM5.66667 21.6892C3.82324 19.6191 2.81362 16.9385 2.83334 14.1667V13.7558H3.79667C7.15045 13.7259 10.4853 13.2494 13.7133 12.3392C14.1667 13.2033 14.5917 14.0958 15.0025 15.0167C12.7946 15.795 10.7384 16.9502 8.92501 18.4308L8.50001 18.7708C7.49009 19.6778 6.54343 20.6529 5.66667 21.6892ZM14.1667 25.5C11.9086 25.505 9.70162 24.8286 7.83417 23.5592C8.52386 22.7681 9.26195 22.0205 10.0442 21.3208L10.4975 20.9383C12.1737 19.5286 14.0944 18.4386 16.1642 17.7225C17.0161 20.026 17.6794 22.3949 18.1475 24.8058C16.8722 25.2715 15.5243 25.5065 14.1667 25.5ZM20.7258 23.3892C20.2623 21.2451 19.6566 19.1343 18.9125 17.0708H19.3942C19.45 17.057 19.5083 17.057 19.5642 17.0708H20.5417C22.0325 17.0751 23.5121 17.3289 24.9192 17.8217C24.1461 20.0747 22.6778 22.0241 20.7258 23.3892ZM20.5417 14.1667H19.6633C19.4799 14.1436 19.2943 14.1436 19.1108 14.1667C18.7258 14.1903 18.3426 14.2376 17.9633 14.3083H17.8217C17.4108 13.3592 16.9858 12.4383 16.5183 11.475C19.0551 10.6038 21.4914 9.46402 23.7858 8.075C24.924 9.9016 25.5186 12.0145 25.5 14.1667V14.8892C23.8945 14.3936 22.2219 14.1499 20.5417 14.1667Z" fill="white"/>
</g>

<!-- contacts -->
<g id="mail">
<path d="M17 0H3C2.20435 0 1.44129 0.316071 0.87868 0.87868C0.316071 1.44129 0 2.20435 0 3V13C0 13.7956 0.316071 14.5587 0.87868 15.1213C1.44129 15.6839 2.20435 16 3 16H17C17.7956 16 18.5587 15.6839 19.1213 15.1213C19.6839 14.5587 20 13.7956 20 13V3C20 2.20435 19.6839 1.44129 19.1213 0.87868C18.5587 0.316071 17.7956 0 17 0ZM16.59 2L10.71 7.88C10.617 7.97373 10.5064 8.04812 10.3846 8.09889C10.2627 8.14966 10.132 8.1758 10 8.1758C9.86799 8.1758 9.73728 8.14966 9.61542 8.09889C9.49356 8.04812 9.38296 7.97373 9.29 7.88L3.41 2H16.59ZM18 13C18 13.2652 17.8946 13.5196 17.7071 13.7071C17.5196 13.8946 17.2652 14 17 14H3C2.73478 14 2.48043 13.8946 2.29289 13.7071C2.10536 13.5196 2 13.2652 2 13V3.41L7.88 9.29C8.4425 9.8518 9.205 10.1674 10 10.1674C10.795 10.1674 11.5575 9.8518 12.12 9.29L18 3.41V13Z" fill="white"/>
</g>
<g id="phone">
<path d="M18 10.18V8C18 5.87827 17.1571 3.84344 15.6569 2.34315C14.1566 0.842855 12.1217 0 10 0C7.87827 0 5.84344 0.842855 4.34315 2.34315C2.84285 3.84344 2 5.87827 2 8V10.18C1.41645 10.3863 0.910998 10.7681 0.552938 11.2729C0.194879 11.7778 0.00173951 12.3811 0 13V15C0 15.7956 0.316071 16.5587 0.87868 17.1213C1.44129 17.6839 2.20435 18 3 18H6C6.26522 18 6.51957 17.8946 6.70711 17.7071C6.89464 17.5196 7 17.2652 7 17V11C7 10.7348 6.89464 10.4804 6.70711 10.2929C6.51957 10.1054 6.26522 10 6 10H4V8C4 6.4087 4.63214 4.88258 5.75736 3.75736C6.88258 2.63214 8.4087 2 10 2C11.5913 2 13.1174 2.63214 14.2426 3.75736C15.3679 4.88258 16 6.4087 16 8V10H14C13.7348 10 13.4804 10.1054 13.2929 10.2929C13.1054 10.4804 13 10.7348 13 11V17C13 17.2652 13.1054 17.5196 13.2929 17.7071C13.4804 17.8946 13.7348 18 14 18H17C17.7956 18 18.5587 17.6839 19.1213 17.1213C19.6839 16.5587 20 15.7956 20 15V13C19.9983 12.3811 19.8051 11.7778 19.4471 11.2729C19.089 10.7681 18.5835 10.3863 18 10.18ZM5 12V16H3C2.73478 16 2.48043 15.8946 2.29289 15.7071C2.10536 15.5196 2 15.2652 2 15V13C2 12.7348 2.10536 12.4804 2.29289 12.2929C2.48043 12.1054 2.73478 12 3 12H5ZM18 15C18 15.2652 17.8946 15.5196 17.7071 15.7071C17.5196 15.8946 17.2652 16 17 16H15V12H17C17.2652 12 17.5196 12.1054 17.7071 12.2929C17.8946 12.4804 18 12.7348 18 13V15Z" fill="white"/>
</g>

</svg>
